<svg xmlns="http://www.w3.org/2000/svg" width="18" height="18" viewBox="0 0 18 18" fill="none">
<g clip-path="url(#clip0_39_642)">
<path d="M-3 0H21V18H-3V0Z" fill="#012169"/>
<path d="M-0.1875 0L8.9625 6.7875L18.075 0H21V2.325L12 9.0375L21 15.7125V18H18L9 11.2875L0.0375001 18H-3V15.75L5.9625 9.075L-3 2.4V0H-0.1875Z" fill="white"/>
<path d="M12.9 10.5375L21 16.5V18L10.8375 10.5375H12.9ZM6 11.2875L6.225 12.6L-0.975 18H-3L6 11.2875ZM21 0V0.1125L11.6625 7.1625L11.7375 5.5125L19.125 0H21ZM-3 0L5.9625 6.6H3.7125L-3 1.575V0Z" fill="#C8102E"/>
<path d="M6.0375 0V18H12.0375V0H6.0375ZM-3 6V12H21V6H-3Z" fill="white"/>
<path d="M-3 7.2375V10.8375H21V7.2375H-3ZM7.2375 0V18H10.8375V0H7.2375Z" fill="#C8102E"/>
</g>
<defs>
<clipPath id="clip0_39_642">
<rect width="24" height="18" fill="white" transform="translate(-3)"/>
</clipPath>
</defs>
</svg>