<svg xmlns="http://www.w3.org/2000/svg" width="62" height="62" viewBox="0 0 62 62" fill="none">
<path d="M9.37745 11.784L9.37724 11.7836C8.69294 10.2511 9.10795 8.71262 10.0397 7.73738C10.9642 6.76967 12.3393 6.40087 13.6817 7.11631C13.6818 7.11635 13.6819 7.11639 13.682 7.11643C13.682 7.11647 13.6821 7.11651 13.6822 7.11655L28.9355 15.2586C30.4137 16.0493 32.1649 16.0488 33.6446 15.259L33.6447 15.2589L48.8941 7.11628C48.8941 7.11627 48.8941 7.11626 48.8942 7.11624C50.2362 6.39984 51.6104 6.76872 52.5348 7.73709C53.4667 8.71324 53.8815 10.2527 53.1984 11.7838L53.1983 11.784L34.18 54.4345C33.0055 57.0657 29.5676 57.0641 28.3961 54.4351L28.396 54.4349L9.37745 11.784Z" fill="#E69944" stroke="#EBF6F9" stroke-width="2"/>
</svg>