<svg xmlns="http://www.w3.org/2000/svg" width="25" height="24" viewBox="0 0 25 24" fill="none">
<path d="M22.1123 12C22.1123 17.5228 17.6351 22 12.1123 22C6.58945 22 2.1123 17.5228 2.1123 12C2.1123 6.47715 6.58945 2 12.1123 2C17.6351 2 22.1123 6.47715 22.1123 12Z" fill="#2474A5"/>
<path d="M16.1426 8.96967C16.4355 9.26256 16.4355 9.73744 16.1426 10.0303L11.1426 15.0303C10.8497 15.3232 10.3749 15.3232 10.082 15.0303L8.08197 13.0303C7.78908 12.7374 7.78908 12.2626 8.08197 11.9697C8.37486 11.6768 8.84974 11.6768 9.14263 11.9697L10.6123 13.4393L12.8471 11.2045L15.082 8.96967C15.3749 8.67678 15.8497 8.67678 16.1426 8.96967Z" fill="white"/>
</svg>