<svg xmlns="http://www.w3.org/2000/svg" width="20" height="21" viewBox="0 0 20 21" fill="none">
<path d="M17.5 11.75V16.75C17.5 16.9158 17.4342 17.0747 17.3169 17.1919C17.1997 17.3092 17.0408 17.375 16.875 17.375H3.125C2.95924 17.375 2.80027 17.3092 2.68306 17.1919C2.56585 17.0747 2.5 16.9158 2.5 16.75V11.75C2.5 11.5842 2.56585 11.4253 2.68306 11.3081C2.80027 11.1908 2.95924 11.125 3.125 11.125C3.29076 11.125 3.44973 11.1908 3.56694 11.3081C3.68415 11.4253 3.75 11.5842 3.75 11.75V16.125H16.25V11.75C16.25 11.5842 16.3158 11.4253 16.4331 11.3081C16.5503 11.1908 16.7092 11.125 16.875 11.125C17.0408 11.125 17.1997 11.1908 17.3169 11.3081C17.4342 11.4253 17.5 11.5842 17.5 11.75ZM9.55781 12.1922C9.61586 12.2503 9.68479 12.2964 9.76066 12.3279C9.83654 12.3593 9.91787 12.3755 10 12.3755C10.0821 12.3755 10.1635 12.3593 10.2393 12.3279C10.3152 12.2964 10.3841 12.2503 10.4422 12.1922L13.5672 9.06719C13.6253 9.00912 13.6713 8.94018 13.7027 8.86431C13.7342 8.78844 13.7503 8.70712 13.7503 8.625C13.7503 8.54288 13.7342 8.46156 13.7027 8.38569C13.6713 8.30982 13.6253 8.24088 13.5672 8.18281C13.5091 8.12474 13.4402 8.07868 13.3643 8.04725C13.2884 8.01583 13.2071 7.99965 13.125 7.99965C13.0429 7.99965 12.9616 8.01583 12.8857 8.04725C12.8098 8.07868 12.7409 8.12474 12.6828 8.18281L10.625 10.2414V3C10.625 2.83424 10.5592 2.67527 10.4419 2.55806C10.3247 2.44085 10.1658 2.375 10 2.375C9.83424 2.375 9.67527 2.44085 9.55806 2.55806C9.44085 2.67527 9.375 2.83424 9.375 3V10.2414L7.31719 8.18281C7.19991 8.06554 7.04085 7.99965 6.875 7.99965C6.70915 7.99965 6.55009 8.06554 6.43281 8.18281C6.31554 8.30009 6.24965 8.45915 6.24965 8.625C6.24965 8.79085 6.31554 8.94991 6.43281 9.06719L9.55781 12.1922Z" fill="#2474A5"/>
</svg>