<svg xmlns="http://www.w3.org/2000/svg" width="28" height="28" viewBox="0 0 28 28" fill="none">
<path d="M24.5 16.625C24.5 16.8571 24.4078 17.0796 24.2437 17.2437C24.0796 17.4078 23.8571 17.5 23.625 17.5H21V19.25H22.75C22.9821 19.25 23.2046 19.3422 23.3687 19.5063C23.5328 19.6704 23.625 19.8929 23.625 20.125C23.625 20.3571 23.5328 20.5796 23.3687 20.7437C23.2046 20.9078 22.9821 21 22.75 21H21V22.75C21 22.9821 20.9078 23.2046 20.7437 23.3687C20.5796 23.5328 20.3571 23.625 20.125 23.625C19.8929 23.625 19.6704 23.5328 19.5063 23.3687C19.3422 23.2046 19.25 22.9821 19.25 22.75V16.625C19.25 16.3929 19.3422 16.1704 19.5063 16.0063C19.6704 15.8422 19.8929 15.75 20.125 15.75H23.625C23.8571 15.75 24.0796 15.8422 24.2437 16.0063C24.4078 16.1704 24.5 16.3929 24.5 16.625ZM10.0625 18.8125C10.0625 19.6247 9.73984 20.4037 9.16551 20.978C8.59118 21.5523 7.81223 21.875 7 21.875H6.125V22.75C6.125 22.9821 6.03281 23.2046 5.86872 23.3687C5.70462 23.5328 5.48206 23.625 5.25 23.625C5.01794 23.625 4.79538 23.5328 4.63128 23.3687C4.46719 23.2046 4.375 22.9821 4.375 22.75V16.625C4.375 16.3929 4.46719 16.1704 4.63128 16.0063C4.79538 15.8422 5.01794 15.75 5.25 15.75H7C7.81223 15.75 8.59118 16.0727 9.16551 16.647C9.73984 17.2213 10.0625 18.0003 10.0625 18.8125ZM8.3125 18.8125C8.3125 18.4644 8.17422 18.1306 7.92808 17.8844C7.68194 17.6383 7.3481 17.5 7 17.5H6.125V20.125H7C7.3481 20.125 7.68194 19.9867 7.92808 19.7406C8.17422 19.4944 8.3125 19.1606 8.3125 18.8125ZM17.9375 19.6875C17.9375 20.7318 17.5227 21.7333 16.7842 22.4717C16.0458 23.2102 15.0443 23.625 14 23.625H12.25C12.0179 23.625 11.7954 23.5328 11.6313 23.3687C11.4672 23.2046 11.375 22.9821 11.375 22.75V16.625C11.375 16.3929 11.4672 16.1704 11.6313 16.0063C11.7954 15.8422 12.0179 15.75 12.25 15.75H14C15.0443 15.75 16.0458 16.1648 16.7842 16.9033C17.5227 17.6417 17.9375 18.6432 17.9375 19.6875ZM16.1875 19.6875C16.1875 19.1073 15.957 18.5509 15.5468 18.1407C15.1366 17.7305 14.5802 17.5 14 17.5H13.125V21.875H14C14.5802 21.875 15.1366 21.6445 15.5468 21.2343C15.957 20.8241 16.1875 20.2677 16.1875 19.6875ZM4.375 12.25V4.375C4.375 3.91087 4.55937 3.46575 4.88756 3.13756C5.21575 2.80937 5.66087 2.625 6.125 2.625H16.625C16.7399 2.62491 16.8538 2.64747 16.96 2.69138C17.0662 2.7353 17.1627 2.79971 17.2441 2.88094L23.3691 9.00594C23.4503 9.08726 23.5147 9.18379 23.5586 9.29001C23.6025 9.39623 23.6251 9.51006 23.625 9.625V12.25C23.625 12.4821 23.5328 12.7046 23.3687 12.8687C23.2046 13.0328 22.9821 13.125 22.75 13.125C22.5179 13.125 22.2954 13.0328 22.1313 12.8687C21.9672 12.7046 21.875 12.4821 21.875 12.25V10.5H16.625C16.3929 10.5 16.1704 10.4078 16.0063 10.2437C15.8422 10.0796 15.75 9.85706 15.75 9.625V4.375H6.125V12.25C6.125 12.4821 6.03281 12.7046 5.86872 12.8687C5.70462 13.0328 5.48206 13.125 5.25 13.125C5.01794 13.125 4.79538 13.0328 4.63128 12.8687C4.46719 12.7046 4.375 12.4821 4.375 12.25ZM17.5 8.75H20.638L17.5 5.61203V8.75Z" fill="#2474A5"/>
</svg>