<svg xmlns="http://www.w3.org/2000/svg" width="43" height="64" viewBox="0 0 43 64" fill="none">
<g opacity="0.8" clip-path="url(#clip0_893_19295)">
<path d="M21.495 64C9.64401 64 0 54.43 0 42.67V21.34C0 9.57 9.64401 0 21.495 0C33.3459 0 42.9899 9.57 42.9899 21.33V42.66C42.9899 54.42 33.3459 63.99 21.495 63.99V64ZM21.495 2.25C10.8936 2.25 2.2674 10.81 2.2674 21.33V42.66C2.2674 53.18 10.8936 61.74 21.495 61.74C32.0963 61.74 40.7225 53.18 40.7225 42.66V21.33C40.7225 10.81 32.0963 2.25 21.495 2.25Z" fill="white"/>
<path d="M21.0314 20.01H21.1725C21.6865 20 22.0996 20.42 22.1702 20.97V21.12V40.16L26.4933 35.33C26.8461 34.93 27.4104 34.89 27.8034 35.22L27.9143 35.33C28.277 35.73 28.3073 36.35 28.015 36.79L27.9143 36.92L21.8679 43.67C21.5151 44.07 20.9508 44.11 20.5578 43.78L20.4469 43.67L14.3905 36.92C13.9974 36.48 13.9974 35.77 14.3905 35.33C14.7432 34.93 15.3075 34.89 15.7005 35.22L15.8114 35.33L20.1345 40.16V21.12C20.1345 20.55 20.5175 20.08 21.0113 20.01H21.0314Z" fill="white"/>
</g>
<defs>
<clipPath id="clip0_893_19295">
<rect width="43" height="64" fill="white"/>
</clipPath>
</defs>
</svg>