<svg xmlns="http://www.w3.org/2000/svg" width="32" height="32" viewBox="0 0 32 32" fill="none">
<rect width="32" height="32" rx="16" fill="#F1F1F1"/>
<path d="M19.5309 12.4694C19.6006 12.539 19.6559 12.6217 19.6937 12.7128C19.7314 12.8038 19.7509 12.9014 19.7509 13C19.7509 13.0986 19.7314 13.1962 19.6937 13.2872C19.6559 13.3783 19.6006 13.461 19.5309 13.5306L13.5309 19.5306C13.4612 19.6003 13.3785 19.6556 13.2874 19.6933C13.1964 19.731 13.0988 19.7504 13.0003 19.7504C12.9017 19.7504 12.8041 19.731 12.7131 19.6933C12.6221 19.6556 12.5393 19.6003 12.4696 19.5306C12.4 19.4609 12.3447 19.3782 12.307 19.2872C12.2693 19.1961 12.2499 19.0985 12.2499 19C12.2499 18.9015 12.2693 18.8039 12.307 18.7128C12.3447 18.6218 12.4 18.5391 12.4696 18.4694L18.4696 12.4694C18.5393 12.3996 18.622 12.3443 18.7131 12.3066C18.8041 12.2688 18.9017 12.2494 19.0003 12.2494C19.0988 12.2494 19.1964 12.2688 19.2875 12.3066C19.3785 12.3443 19.4612 12.3996 19.5309 12.4694ZM24.2128 7.7875C23.7253 7.29993 23.1465 6.91317 22.5095 6.6493C21.8725 6.38543 21.1898 6.24962 20.5003 6.24962C19.8108 6.24962 19.128 6.38543 18.4911 6.6493C17.8541 6.91317 17.2753 7.29993 16.7878 7.7875L13.9696 10.6047C13.8289 10.7454 13.7499 10.9363 13.7499 11.1353C13.7499 11.3343 13.8289 11.5252 13.9696 11.6659C14.1104 11.8067 14.3012 11.8857 14.5003 11.8857C14.6993 11.8857 14.8902 11.8067 15.0309 11.6659L17.849 8.85343C18.5548 8.16311 19.5044 7.77898 20.4917 7.78442C21.479 7.78986 22.4243 8.18442 23.1225 8.88248C23.8207 9.58054 24.2154 10.5258 24.221 11.513C24.2266 12.5003 23.8427 13.45 23.1525 14.1559L20.3334 16.9741C20.1927 17.1147 20.1136 17.3054 20.1135 17.5044C20.1134 17.7033 20.1923 17.8941 20.3329 18.0348C20.4735 18.1756 20.6643 18.2547 20.8632 18.2548C21.0622 18.2549 21.253 18.1759 21.3937 18.0353L24.2128 15.2125C24.7003 14.725 25.0871 14.1462 25.351 13.5092C25.6148 12.8722 25.7506 12.1895 25.7506 11.5C25.7506 10.8105 25.6148 10.1278 25.351 9.49079C25.0871 8.85379 24.7003 8.27501 24.2128 7.7875ZM16.9696 20.3331L14.1515 23.1512C13.8047 23.5058 13.391 23.7881 12.9344 23.9817C12.4777 24.1753 11.9872 24.2764 11.4912 24.2791C10.9953 24.2819 10.5037 24.1862 10.0449 23.9976C9.58617 23.8091 9.16939 23.5314 8.81871 23.1806C8.46802 22.8299 8.1904 22.413 8.00192 21.9543C7.81343 21.4955 7.71783 21.0039 7.72065 20.5079C7.72347 20.0119 7.82465 19.5214 8.01834 19.0648C8.21203 18.6082 8.49437 18.1945 8.84902 17.8478L11.6662 15.0306C11.8069 14.8899 11.886 14.699 11.886 14.5C11.886 14.301 11.8069 14.1101 11.6662 13.9694C11.5255 13.8286 11.3346 13.7496 11.1356 13.7496C10.9366 13.7496 10.7457 13.8286 10.605 13.9694L7.78777 16.7875C6.80315 17.7721 6.25 19.1075 6.25 20.5C6.25 21.8925 6.80315 23.2279 7.78777 24.2125C8.77238 25.1971 10.1078 25.7503 11.5003 25.7503C12.8927 25.7503 14.2282 25.1971 15.2128 24.2125L18.0309 21.3934C18.1715 21.2527 18.2504 21.0619 18.2504 20.8629C18.2503 20.664 18.1712 20.4733 18.0304 20.3327C17.8897 20.192 17.6989 20.1131 17.4999 20.1132C17.301 20.1133 17.1102 20.1924 16.9696 20.3331Z" fill="#151718"/>
</svg>