<svg xmlns="http://www.w3.org/2000/svg" width="294" height="98" viewBox="0 0 294 98" fill="none">
<path d="M35.2168 5.2342C34.3735 5.26295 33.4439 5.32046 33.1565 5.3588C32.869 5.40672 32.1503 5.51216 31.5753 5.60801C31.0003 5.71344 30.157 5.87639 29.7067 5.98182C29.2563 6.08726 28.6334 6.24062 28.3172 6.32688C28.0009 6.41315 27.3589 6.61443 26.8797 6.76779C26.4006 6.93074 25.519 7.25663 24.9153 7.49625C24.3115 7.73588 23.1904 8.26305 22.4237 8.65603C21.6571 9.04902 20.5551 9.67204 19.9801 10.0363C19.4052 10.4101 18.4852 11.0331 17.939 11.4357C17.4024 11.8478 16.9615 12.2025 16.9615 12.2408C16.9615 12.2887 17.1628 12.4517 17.4215 12.6242C17.6707 12.7967 18.2361 13.1131 18.6864 13.3335C19.1368 13.554 19.9322 13.8703 20.4593 14.0332C20.9863 14.1962 21.6954 14.3687 22.0404 14.4262C22.3854 14.4741 23.1999 14.522 23.8612 14.522C24.5224 14.522 25.4231 14.4645 25.8735 14.3879C26.3239 14.3016 27.723 13.9853 28.9879 13.669C30.2529 13.3527 31.6999 12.998 32.1982 12.8926C32.6965 12.7872 33.7123 12.653 34.4501 12.5955C35.3893 12.5284 36.2996 12.5284 37.5166 12.605C38.4653 12.6721 39.2607 12.7297 39.2894 12.7488C39.3182 12.768 39.8357 12.8543 40.4394 12.9405C41.0431 13.0268 41.9247 13.1993 42.4039 13.3239C42.883 13.4485 43.5634 13.6306 43.9371 13.7361C44.2953 13.8371 45.5163 14.1495 46.7056 14.4538L46.8599 14.4933C48.096 14.8192 49.2843 15.1067 49.4951 15.1451C49.7059 15.1834 50.3767 15.2122 50.9804 15.2026C51.8429 15.2026 52.2933 15.1451 53.0407 14.9534C53.5774 14.8096 54.4686 14.4741 55.0531 14.1962C55.6281 13.9086 56.3851 13.4869 56.7301 13.2568C57.0751 13.0268 57.353 12.7872 57.353 12.7201C57.353 12.6626 56.9218 12.2792 56.3947 11.867C55.8677 11.4548 55.0723 10.8797 54.6219 10.5826C54.1715 10.2855 53.5678 9.89249 53.2803 9.71038C52.9928 9.51868 52.255 9.11611 51.6512 8.79022C51.0475 8.47392 49.9934 7.9755 49.3035 7.68795C48.6231 7.4004 47.6073 7.00742 47.0515 6.81572C46.4957 6.6336 45.4416 6.32688 44.7037 6.13518C43.9658 5.95307 42.8638 5.71344 42.2601 5.60801C41.6564 5.51216 40.6598 5.37797 40.0561 5.33005C39.4524 5.27254 38.4557 5.21502 37.852 5.20544C37.2483 5.18627 36.06 5.20544 35.2168 5.2342Z" fill="#4DBFD8"/>
<path d="M14.4988 14.407C13.8759 15.03 13.0326 15.9406 12.6205 16.439C12.2085 16.9375 11.8156 17.4167 11.7581 17.4934C11.7298 17.5297 11.6744 17.6035 11.6032 17.6982L11.6031 17.6982C11.5053 17.8283 11.3777 17.9979 11.2502 18.1643C11.0394 18.4519 10.8094 18.7874 10.7519 18.912C10.6561 19.0941 10.6657 19.1228 10.7998 19.1228C10.8956 19.1228 11.3173 19.2091 11.7389 19.3145C11.8594 19.3474 11.9979 19.385 12.143 19.4243C12.5056 19.5227 12.9094 19.6322 13.1763 19.7075C13.4822 19.8041 14.0381 19.9751 14.5036 20.1182L14.5038 20.1183C14.5925 20.1456 14.6778 20.1718 14.7575 20.1964C15.2558 20.3593 16.2908 20.7235 17.0574 21.0015C17.824 21.2795 19.0314 21.7395 19.7406 22.0271C20.4497 22.3146 21.6379 22.8514 22.3758 23.2156C23.1137 23.5894 24.1774 24.1549 24.7428 24.4808C24.8577 24.5441 24.9689 24.6054 25.0733 24.6631C25.4913 24.8937 25.8026 25.0655 25.8256 25.0655C25.8544 25.0655 26.1035 25.1997 26.3718 25.3627C26.6497 25.5256 27.4164 25.9378 28.0776 26.2636C28.7388 26.5895 29.6396 26.9921 30.09 27.1646C30.5404 27.3276 31.2303 27.548 31.6232 27.663C32.0161 27.7685 32.754 27.9506 33.2523 28.056C33.8943 28.1902 34.6801 28.2669 35.8876 28.2957C36.9033 28.3244 37.9479 28.3052 38.427 28.2381C38.8774 28.1806 39.7111 28.0464 40.2956 27.941C40.7906 27.8502 41.52 27.7098 42.0312 27.6113C42.1139 27.5954 42.1908 27.5805 42.2601 27.5672C42.5366 27.514 42.9311 27.4343 43.3274 27.3542L43.3275 27.3541C43.6454 27.2899 43.9644 27.2254 44.2246 27.1742C44.7995 27.0592 45.7099 26.8771 46.237 26.7812C46.764 26.6758 47.6936 26.5033 48.2973 26.3978C48.901 26.2924 49.8113 26.1486 50.3097 26.0719C50.6875 26.0211 51.236 25.9316 51.6881 25.8579L51.6894 25.8577C51.833 25.8343 51.9669 25.8125 52.0825 25.794C52.552 25.7173 53.357 25.5448 53.8553 25.4106C54.3536 25.2764 55.0052 25.0847 55.2927 24.9888C55.5802 24.893 56.1456 24.6534 56.5385 24.4617C56.9314 24.27 57.6884 23.8291 58.2155 23.484C58.7425 23.1294 59.7295 22.4201 60.4195 21.9025C61.0999 21.3849 62.0677 20.6181 62.5565 20.2059L63.4477 19.4583C63.1889 19.0845 62.7481 18.4806 62.2977 17.8768C61.8473 17.2729 61.2819 16.5636 61.052 16.2953C60.822 16.0365 60.2087 15.3751 59.6912 14.8383L58.7425 13.8511C57.8896 14.4358 57.2763 14.7808 56.826 15.0013C56.3756 15.2122 55.6089 15.5476 55.1202 15.7202C54.6411 15.9023 53.7978 16.1611 53.2516 16.2953C52.4562 16.487 52.0346 16.5349 50.9804 16.5349C50.0222 16.5349 49.3418 16.4774 48.3452 16.2953C47.6073 16.1611 46.6394 15.979 46.1891 15.8735C45.7387 15.7777 44.9816 15.5956 44.5121 15.4805C44.2382 15.4203 43.8828 15.3349 43.5499 15.255L43.5498 15.255C43.3004 15.1951 43.0636 15.1382 42.883 15.0971C42.4613 14.9917 41.6181 14.8 41.0143 14.6754C40.4106 14.5412 39.3469 14.3879 38.6666 14.3208C37.8904 14.2537 36.75 14.2249 35.648 14.2632C34.6705 14.292 33.5685 14.3687 33.2044 14.4262C32.8306 14.4837 32.2078 14.6275 31.8149 14.7617C31.422 14.8863 30.5595 15.1163 29.8983 15.2793C29.3709 15.4092 28.8008 15.5453 28.4701 15.6242L28.4698 15.6243C28.3861 15.6443 28.3177 15.6606 28.2692 15.6722C28.0297 15.7202 27.2343 15.8544 26.4964 15.9694C25.5477 16.1131 24.7044 16.1707 23.6216 16.1707C22.395 16.1611 21.935 16.1227 21.3217 15.9694C20.9001 15.8639 20.3347 15.6914 20.076 15.586C19.8076 15.4901 19.2518 15.2409 18.8302 15.0492C18.4085 14.8479 17.594 14.3974 17.019 14.0524C16.4441 13.7073 15.9841 13.3814 15.9458 13.3527C15.9074 13.3239 15.8595 13.276 15.7733 13.276C15.6966 13.276 15.1216 13.784 14.4988 14.407Z" fill="#2576B8"/>
<path d="M9.03658 21.6629C8.82576 22.0367 8.44245 22.7651 8.19329 23.2923C7.94414 23.8195 7.57999 24.663 7.37876 25.1614C7.17752 25.6598 6.9092 26.3978 6.77504 26.7908C6.65047 27.1838 6.46839 27.7685 6.37256 28.0848C6.35762 28.1396 6.34038 28.2024 6.32158 28.271C6.23188 28.5979 6.10681 29.0539 6.02759 29.3788C5.92217 29.7717 5.77843 30.4619 5.70177 30.9124C5.62511 31.3629 5.55803 31.775 5.55803 31.8229C5.54844 31.8709 6.10425 32.3309 6.77504 32.8389C7.44584 33.3469 8.19329 33.8837 8.43286 34.0466C8.67243 34.2096 9.29531 34.5642 9.82237 34.8518C10.3494 35.1297 11.1448 35.4748 11.5952 35.6186C12.0456 35.7624 12.7739 35.9253 13.2243 35.9924C13.6746 36.0499 14.0675 36.1266 14.1059 36.1458C14.1538 36.1649 15.9841 36.2224 18.1786 36.2799C20.3826 36.3279 22.5675 36.4141 23.0466 36.4716C23.2837 36.4958 23.6161 36.5323 23.9586 36.5698C24.2945 36.6066 24.6401 36.6445 24.9153 36.6729C25.4711 36.7304 26.3048 36.8646 26.7839 36.9701C27.2535 37.0659 27.9243 37.2384 28.2692 37.3343C28.6142 37.4301 29.5342 37.7464 30.3295 38.034C30.5903 38.1326 30.9122 38.2533 31.2568 38.3826L31.2601 38.3838L31.2615 38.3844C31.9543 38.6442 32.738 38.9382 33.3002 39.1554C34.1435 39.4813 35.8684 40.1044 37.1333 40.5453C38.3982 40.9766 40.0561 41.4942 40.8227 41.6763C41.5893 41.868 42.5763 42.0693 43.0267 42.1268C43.4771 42.1747 44.2438 42.2226 44.7229 42.2226C45.2116 42.2226 46.0357 42.1747 46.5436 42.1172C47.0611 42.0597 47.914 41.9159 48.441 41.7913C48.9681 41.6667 49.6964 41.4846 50.0701 41.3792C50.4342 41.2737 51.3254 40.9766 52.0346 40.7082C52.7437 40.4398 53.5007 40.1523 53.7115 40.066C53.9224 39.9798 54.3344 39.7976 54.6219 39.6634C54.9094 39.5388 55.6664 39.1842 56.2989 38.8871C56.9314 38.5899 57.8321 38.1203 58.3113 37.8327C58.7808 37.5548 59.4996 37.0659 59.8924 36.7496C60.2853 36.4333 60.937 35.8582 61.3299 35.4748C61.7228 35.101 62.3648 34.4492 62.7577 34.0275C63.1506 33.6057 63.7926 32.8485 64.2047 32.3501C64.6072 31.8517 65.278 30.9603 65.6996 30.3852C66.1117 29.8101 66.6675 29.0337 66.9166 28.6599L67.3766 27.9889C66.9837 26.7237 66.6579 25.8419 66.4087 25.2093C66.1596 24.5767 65.7571 23.6469 65.5175 23.1485C65.278 22.6501 64.8755 21.8737 64.6359 21.4232L64.1855 20.6085C63.0452 21.7299 62.3744 22.3626 61.9527 22.7364C61.5311 23.1006 60.8603 23.6374 60.4674 23.9249C60.0745 24.2125 59.49 24.6246 59.1737 24.8259C58.8575 25.0368 58.1675 25.4202 57.6405 25.6885C57.1134 25.9569 56.3756 26.2924 56.0114 26.4362C55.6377 26.5799 54.8902 26.8292 54.3344 26.9921C53.7786 27.155 52.9353 27.3659 52.4658 27.4713C52.1519 27.5404 51.7024 27.6341 51.2896 27.7202L51.289 27.7204L51.2872 27.7207L51.2859 27.721C51.0698 27.7661 50.8639 27.809 50.693 27.8452C50.1947 27.9506 49.3897 28.1231 48.9202 28.2286C48.441 28.334 47.5594 28.5257 46.9557 28.6503C46.352 28.7845 45.4224 28.9474 44.8954 29.0337C44.3683 29.12 43.3526 29.2542 42.6434 29.3404C41.9343 29.4171 40.7269 29.5417 39.9602 29.6184C39.1936 29.6951 37.8137 29.7526 36.8937 29.7622C35.9738 29.7622 34.8239 29.7142 34.3543 29.6663C33.8752 29.6088 33.0798 29.4746 32.5815 29.3692C32.0832 29.2637 31.4507 29.1104 31.192 29.0241C30.9237 28.9474 30.2337 28.7078 29.6587 28.5065C29.0742 28.2957 28.5184 28.0944 28.413 28.0369C28.3076 27.9889 27.8955 27.8164 27.5026 27.6535C27.1097 27.4809 24.9728 26.4458 22.7591 25.3531C20.5455 24.2508 18.3415 23.1964 17.8719 23.0047C17.3928 22.8226 16.9232 22.6214 16.8178 22.5734C16.7124 22.5159 16.1949 22.3242 15.6679 22.1325C15.1408 21.9408 14.3838 21.6916 13.9909 21.567C13.598 21.4424 13.0326 21.2795 12.7451 21.2028C12.4576 21.1165 11.8539 20.9823 11.4035 20.8865C10.9531 20.8002 10.3782 20.6948 10.1194 20.6564C9.69779 20.5989 9.63071 20.6181 9.5253 20.7906C9.50123 20.8388 9.44693 20.934 9.37716 21.0558L9.36304 21.0805L9.36298 21.0805C9.26812 21.2462 9.14794 21.456 9.03658 21.6629Z" fill="#243F7C"/>
<path d="M67.0795 31.2766C66.6866 31.89 65.9775 32.9635 65.4984 33.6537C65.0288 34.3534 64.358 35.2448 64.013 35.6473C63.6681 36.0499 63.026 36.7017 62.5756 37.0851C62.1252 37.4781 61.5024 37.9861 61.1861 38.2161C60.8699 38.4462 60.3045 38.82 59.9404 39.05C59.5762 39.2896 58.685 39.7689 57.9759 40.1235C57.2668 40.4782 56.2031 40.9574 55.6281 41.197C55.0531 41.4367 54.1619 41.7626 53.6636 41.9351C53.1653 42.098 52.1016 42.4239 51.3158 42.654C50.5205 42.8744 49.3993 43.1716 48.8243 43.3153C48.5646 43.3803 48.2931 43.4472 48.0567 43.5054C47.7698 43.5761 47.5346 43.6341 47.4348 43.6604C47.2527 43.7083 46.5149 43.8042 45.8057 43.8617C44.8379 43.9479 44.1863 43.9479 43.2184 43.8713C42.5093 43.8042 41.4935 43.67 40.9664 43.5645C40.4394 43.4591 39.4236 43.2003 38.7145 42.9894C38.0054 42.7882 36.9896 42.4623 36.4625 42.2706C35.9355 42.0884 35.3605 41.868 35.188 41.7913C35.0251 41.7146 34.8622 41.6475 34.8334 41.6475C34.8047 41.6475 34.3831 41.4846 33.9039 41.2737C33.7801 41.2227 33.6242 41.1588 33.449 41.0869L33.4455 41.0855L33.4241 41.0767L33.4218 41.0758L33.4206 41.0753C32.9079 40.865 32.2388 40.5905 31.719 40.3727C31.0099 40.0756 30.0421 39.7114 29.5629 39.5484C29.0838 39.3855 28.4417 39.1842 28.1255 39.1075C27.8093 39.0213 27.0714 38.8391 26.4964 38.7145C25.9215 38.5899 24.944 38.4174 24.3403 38.3311C23.7366 38.2545 22.8262 38.1394 22.3279 38.0819C21.7913 38.0244 19.5489 37.9861 16.9136 37.9861C12.9464 37.9957 12.3043 37.9765 11.4994 37.8231C11.0011 37.7273 10.2632 37.526 9.87028 37.3918C9.47739 37.248 8.87367 36.9797 8.52869 36.788C8.18371 36.5963 7.66624 36.2608 7.37876 36.0499C7.09127 35.839 6.67921 35.4844 6.46839 35.2735C6.24799 35.0627 5.90301 34.6888 5.70177 34.4492L5.31846 33.9987C5.20346 34.8422 5.14597 35.5994 5.11722 36.232C5.07889 36.9892 5.10764 37.9957 5.21305 39.2034C5.29929 40.2098 5.41428 41.2833 5.4622 41.5996C5.51011 41.9159 5.61552 42.5389 5.70177 42.9894C5.77843 43.4399 5.99883 44.3697 6.18091 45.0502C6.48756 46.21 6.53547 46.3154 6.87087 46.5838C7.01536 46.6939 7.43653 47.061 7.92861 47.4899C8.12186 47.6583 8.32604 47.8363 8.52869 48.012C9.23782 48.635 10.1482 49.3634 10.5411 49.6222C10.934 49.881 11.7389 50.3315 12.3139 50.6095C12.8889 50.897 14.0388 51.3475 14.8533 51.6159C15.6679 51.8939 16.7028 52.2006 17.1532 52.306C17.6036 52.4019 18.4181 52.5744 18.9739 52.6798C19.5297 52.7757 20.3634 52.9099 20.8426 52.9674C21.3217 53.0249 22.3758 53.0537 23.1904 53.0249C24.2636 52.9866 24.9919 52.9099 25.8256 52.7374C26.4581 52.6032 27.5793 52.3348 28.3172 52.1431C29.055 51.9514 30.2625 51.6255 31.0003 51.405C31.7382 51.1942 33.0702 50.8204 33.971 50.5807L35.6001 50.1494C41.5606 50.0823 43.8413 50.1111 44.56 50.1686C45.2691 50.2261 46.419 50.3315 47.0994 50.3986C47.7798 50.4753 49.1022 50.5712 50.0222 50.6095C50.9996 50.6478 52.437 50.6287 53.472 50.5616C54.4494 50.5041 55.5035 50.4178 55.8198 50.3699C56.136 50.3219 56.7589 50.2165 57.2093 50.1398C57.6597 50.0631 58.3688 49.9098 58.7904 49.7948C59.2121 49.6797 59.7966 49.4689 60.0841 49.3251C60.3716 49.1813 60.937 48.8746 61.3299 48.6446C61.7228 48.4145 62.5277 47.8778 63.1027 47.4464C63.6777 47.0151 64.6072 46.21 65.163 45.6636C65.7188 45.1077 66.4567 44.293 66.8016 43.8521C67.1562 43.4016 67.6353 42.7402 67.8653 42.3664C68.287 41.7146 68.3061 41.6571 68.4595 40.4207C68.5617 39.5772 68.6128 38.4046 68.6128 36.903C68.6128 35.216 68.5649 34.2671 68.4211 33.1361C68.3157 32.3118 68.1624 31.3341 68.0857 30.9603L68.0802 30.9333L68.0801 30.933C68.0058 30.5707 67.942 30.2594 67.942 30.2127C67.942 30.1743 67.9132 30.1456 67.8653 30.1456C67.827 30.1551 67.4724 30.6536 67.0795 31.2766Z" fill="#4DBFD6"/>
<path fill-rule="evenodd" clip-rule="evenodd" d="M276.463 35.4556C276.856 35.3694 277.575 35.2448 278.045 35.1681C278.648 35.0818 279.683 35.0531 281.542 35.0722C283.881 35.101 284.264 35.1298 284.944 35.3119C285.366 35.4269 286.027 35.6761 286.42 35.8774C286.832 36.0787 287.292 36.4141 287.532 36.6633C287.752 36.903 288.049 37.3343 288.202 37.6218C288.346 37.9094 288.547 38.4749 288.643 38.8679C288.806 39.5388 288.825 40.0756 288.825 53.8205H284.513L284.465 52.8715L283.938 53.2358C283.651 53.4275 283.124 53.6863 282.759 53.8013C282.405 53.9163 281.83 54.0505 281.475 54.108C281.111 54.1559 280.392 54.2039 279.865 54.2039C279.338 54.2039 278.6 54.1559 278.236 54.108C277.872 54.0505 277.288 53.9163 276.943 53.8013C276.598 53.6959 276.099 53.4658 275.841 53.2933C275.582 53.1208 275.256 52.8811 275.122 52.7565C274.988 52.6319 274.767 52.3731 274.633 52.191C274.499 52.0089 274.298 51.6255 274.183 51.3475C274.068 51.0792 273.905 50.5136 273.828 50.1015C273.752 49.6989 273.684 49.0184 273.684 48.5966C273.684 48.1749 273.771 47.4656 273.867 47.0151C273.962 46.5646 274.164 45.9416 274.317 45.6253C274.48 45.2611 274.806 44.8202 275.208 44.4176C275.63 44.0054 276.051 43.6891 276.463 43.4879C276.808 43.3249 277.431 43.0949 277.853 42.9703C278.553 42.769 278.802 42.7498 280.872 42.7498C282.443 42.7498 283.296 42.7882 283.698 42.884C284.015 42.9511 284.331 43.0374 284.408 43.0757C284.523 43.1236 284.532 42.9319 284.494 41.8392C284.456 40.8232 284.398 40.4494 284.245 40.1139C284.139 39.8743 283.938 39.5676 283.804 39.4142C283.67 39.2705 283.44 39.0979 283.296 39.0212C283.143 38.9446 282.75 38.8104 282.405 38.7241C281.964 38.6091 281.399 38.5612 280.44 38.5708C279.702 38.5708 278.648 38.6379 278.093 38.7241C277.537 38.8008 276.693 38.9829 276.224 39.1075C275.754 39.2417 275.285 39.3759 275.189 39.3951C275.036 39.443 275.026 39.3088 275.026 35.8486L275.381 35.7336C275.582 35.6665 276.071 35.5419 276.463 35.4556ZM281.83 45.7116C281.121 45.6924 280.364 45.7212 280.153 45.7595C279.942 45.8074 279.549 45.9512 279.29 46.0854C279.022 46.2196 278.744 46.4017 278.658 46.4975C278.562 46.603 278.399 46.8522 278.284 47.063C278.16 47.3027 278.054 47.6861 278.025 48.0695C277.997 48.4145 278.025 48.865 278.073 49.0759C278.131 49.2868 278.275 49.6127 278.399 49.7948C278.543 50.0152 278.821 50.2261 279.195 50.4082C279.731 50.667 279.846 50.6862 280.824 50.6862C281.609 50.6766 282.041 50.6287 282.501 50.4753C282.884 50.3603 283.286 50.1398 283.545 49.9194C283.775 49.7181 284.072 49.3347 284.206 49.0759C284.417 48.6637 284.456 48.4241 284.503 47.341L284.561 46.0854C283.411 45.817 282.596 45.7307 281.83 45.7116ZM106.752 53.8205H102.344V41.0724V28.3244L106.704 28.3723L106.8 36.1745L107.279 35.8774C107.538 35.7144 107.998 35.5036 108.286 35.4077C108.573 35.3119 109.11 35.1873 109.483 35.1202C109.924 35.0531 110.825 35.0243 112.071 35.0531C113.853 35.0914 114.035 35.1202 114.706 35.3598C115.099 35.5036 115.597 35.7144 115.808 35.839C116.019 35.9636 116.393 36.2895 116.642 36.5579C116.9 36.8263 117.255 37.363 117.428 37.7464C117.61 38.1203 117.84 38.7625 117.926 39.1554C118.07 39.7976 118.098 40.6603 118.156 53.8205H113.748V47.5231C113.748 42.7594 113.719 41.0916 113.623 40.689C113.556 40.4015 113.412 40.0085 113.307 39.8264C113.202 39.6443 112.943 39.3567 112.732 39.1938C112.492 39.0021 112.119 38.8487 111.659 38.7433C111.285 38.657 110.748 38.5803 110.49 38.5803C110.221 38.5803 109.675 38.6474 109.263 38.7337C108.861 38.82 108.391 38.9637 108.238 39.0596C108.075 39.1554 107.806 39.3951 107.624 39.5963C107.442 39.8072 107.222 40.1427 107.136 40.3536C107.04 40.5644 106.915 41.0533 106.858 41.4367C106.791 41.8872 106.752 44.1109 106.752 53.8205ZM169.903 36.5675C169.97 36.5675 169.999 35.1297 169.999 32.446V28.3244H174.407V53.8205H169.999V52.5744L169.596 52.8907C169.366 53.0632 169.031 53.2933 168.849 53.3987C168.667 53.5042 168.255 53.6863 167.938 53.8013C167.622 53.9067 167.086 54.0505 166.741 54.0984C166.396 54.1559 165.734 54.2039 165.255 54.1943C164.786 54.1943 164.096 54.1559 163.722 54.108C163.358 54.0601 162.706 53.9163 162.285 53.7725C161.863 53.6383 161.259 53.3796 160.943 53.207C160.627 53.0249 160.138 52.6703 159.851 52.4115C159.573 52.1623 159.199 51.7597 159.026 51.5201C158.854 51.2804 158.557 50.782 158.375 50.4178C158.193 50.044 157.963 49.4401 157.848 49.0759C157.742 48.7021 157.57 48.0407 157.474 47.5902C157.34 46.9384 157.311 46.3346 157.311 44.571C157.311 42.6635 157.34 42.2322 157.531 41.36C157.646 40.8041 157.838 40.0948 157.944 39.7785C158.059 39.4622 158.298 38.9254 158.48 38.5803C158.662 38.2353 158.978 37.7369 159.199 37.4781C159.41 37.2097 159.793 36.8263 160.042 36.6154C160.301 36.4046 160.751 36.0882 161.058 35.9157C161.365 35.7432 161.959 35.494 162.38 35.3502C163.118 35.101 163.233 35.0914 165.159 35.0818C167.095 35.0818 167.201 35.0914 167.843 35.331C168.216 35.4652 168.772 35.7432 169.088 35.9349C169.405 36.1362 169.702 36.3662 169.74 36.4333C169.778 36.51 169.855 36.5675 169.903 36.5675ZM165.878 38.5899C165.591 38.5899 165.102 38.657 164.805 38.7337C164.498 38.8008 164.086 38.9446 163.894 39.05C163.693 39.1459 163.329 39.4526 163.08 39.721C162.831 39.9893 162.515 40.4302 162.38 40.7082C162.256 40.9862 162.055 41.6284 161.949 42.1268C161.805 42.8265 161.758 43.392 161.758 44.5901C161.758 45.7403 161.805 46.3825 161.94 47.0343C162.035 47.5231 162.227 48.1653 162.352 48.4529C162.476 48.7404 162.773 49.1909 163.013 49.4401C163.243 49.6989 163.626 50.0056 163.866 50.1302C164.105 50.2548 164.594 50.4178 164.949 50.5041C165.303 50.5903 165.744 50.6574 165.926 50.6574C166.108 50.6574 166.578 50.5903 166.961 50.5041C167.344 50.4178 167.823 50.2453 168.034 50.1207C168.245 49.9961 168.571 49.7373 168.763 49.536C168.954 49.3347 169.203 48.9992 169.318 48.7883C169.443 48.5775 169.635 48.0791 169.75 47.6861C169.932 47.0343 169.951 46.7372 169.951 44.571C169.951 42.2322 169.951 42.1555 169.692 41.36C169.548 40.9095 169.299 40.3536 169.127 40.1139C168.954 39.8743 168.705 39.5868 168.571 39.4622C168.437 39.3471 168.159 39.1554 167.967 39.0596C167.766 38.9542 167.335 38.8008 167.009 38.7241C166.673 38.6474 166.166 38.5803 165.878 38.5899ZM90.222 29.2829C90.6436 29.2254 91.5252 29.1391 92.1865 29.1104C92.8381 29.072 93.643 29.0529 93.9593 29.0625C94.2755 29.0816 95.0709 29.1391 95.7321 29.1966C96.3933 29.2542 97.3803 29.4267 97.9361 29.5705C98.4919 29.7142 99.1148 29.8964 99.7089 30.1168L99.7377 31.8996C99.7473 33.0498 99.7281 33.692 99.661 33.692C99.6131 33.692 99.2586 33.6057 98.8752 33.5003C98.747 33.4618 98.6122 33.4222 98.4836 33.3845C98.228 33.3094 97.9966 33.2414 97.8882 33.2032C97.7349 33.1552 96.9778 33.0211 96.2112 32.9156C95.1475 32.7527 94.563 32.7239 93.7197 32.7623C93.116 32.791 92.2056 32.8773 91.7073 32.9635C91.209 33.0402 90.5382 33.184 90.222 33.2894C89.9057 33.3949 89.4554 33.5674 89.2158 33.6728C88.9762 33.7783 88.6025 33.9891 88.3821 34.1329C88.1617 34.2863 87.7688 34.6122 87.5196 34.8518C87.2705 35.101 86.9255 35.5323 86.753 35.8103C86.5805 36.0978 86.3122 36.6538 86.1493 37.0467C85.9864 37.4397 85.766 38.264 85.6606 38.8679C85.5168 39.6922 85.4689 40.3919 85.4689 41.6475C85.4689 42.9032 85.5168 43.6029 85.6606 44.4272C85.766 45.031 85.9768 45.8266 86.1205 46.2004C86.2739 46.5646 86.523 47.0822 86.6763 47.3506C86.8297 47.6094 87.2322 48.1174 87.5771 48.4625C88.085 48.9705 88.4012 49.1909 89.12 49.536C89.6183 49.7756 90.4424 50.0631 90.9407 50.1878C91.7744 50.389 92.0619 50.4082 94.1509 50.4082C96.3166 50.4082 96.5179 50.389 97.457 50.1494C98.0128 50.0152 98.7027 49.8331 98.9902 49.7564C99.2777 49.6702 99.5748 49.6031 99.6419 49.6031C99.7281 49.6031 99.7569 50.0152 99.7664 53.1016L99.4981 53.2166C99.3544 53.2741 98.9519 53.4083 98.6069 53.5137C98.2619 53.6192 97.6582 53.7725 97.2653 53.8588C96.8724 53.9451 96.1346 54.0505 95.6363 54.108C95.138 54.1559 94.1413 54.2039 93.4322 54.2039C92.7231 54.2039 91.6881 54.1559 91.1323 54.108C90.5765 54.0505 89.7428 53.9163 89.2637 53.8205C88.7941 53.715 88.0754 53.5233 87.6825 53.3891C87.2896 53.2549 86.7051 53.0057 86.3889 52.8428C86.0726 52.6894 85.536 52.3635 85.191 52.1431C84.846 51.9131 84.2711 51.4146 83.9069 51.0216C83.5428 50.6382 83.0541 50.044 82.8432 49.6989C82.6228 49.3539 82.3258 48.8171 82.182 48.5008C82.0383 48.1845 81.8179 47.619 81.6933 47.2547C81.5783 46.8809 81.3771 46.0854 81.2525 45.4815C81.0417 44.4751 81.0225 44.1396 81.0225 41.6475C81.0225 39.3663 81.0513 38.7529 81.2046 37.9573C81.31 37.4301 81.54 36.5483 81.722 35.9924C81.9041 35.4365 82.2108 34.6793 82.4024 34.315C82.6037 33.9412 82.9391 33.4045 83.1499 33.1169C83.3607 32.8294 83.6865 32.4364 83.859 32.2447C84.0411 32.053 84.4244 31.7079 84.7119 31.4779C84.9994 31.2383 85.5647 30.8644 85.9576 30.6536C86.3505 30.4331 86.9543 30.1456 87.2992 30.0114C87.6442 29.8868 88.2671 29.6951 88.6887 29.5896C89.1104 29.4842 89.8003 29.3404 90.222 29.2829ZM217.52 41.6571C217.51 34.9764 217.539 29.4746 217.577 29.4363C217.625 29.4075 219.494 29.3788 221.736 29.3788C223.988 29.3788 226.441 29.4267 227.208 29.4746C227.975 29.5321 228.923 29.6184 229.316 29.6759C229.709 29.7238 230.188 29.8197 230.37 29.8772C230.552 29.9347 231.031 30.088 231.424 30.2222C231.817 30.3564 232.469 30.644 232.862 30.874C233.255 31.0945 233.878 31.5546 234.242 31.89C234.606 32.2159 235.085 32.7527 235.305 33.069C235.535 33.3853 235.852 33.9125 236.015 34.2383C236.177 34.5738 236.427 35.1777 236.561 35.5802C236.695 35.9924 236.887 36.7592 236.992 37.2864C237.107 37.8135 237.232 38.6762 237.279 39.2034C237.318 39.7305 237.366 40.8328 237.366 41.6475C237.366 42.4623 237.318 43.5645 237.279 44.0917C237.232 44.6189 237.117 45.4144 237.03 45.8649C236.944 46.3154 236.781 46.9768 236.676 47.3506C236.561 47.7148 236.331 48.3474 236.149 48.7404C235.967 49.1334 235.593 49.7756 235.325 50.1686C235.047 50.5616 234.568 51.1079 234.251 51.3955C233.935 51.683 233.351 52.1143 232.958 52.3444C232.565 52.5744 231.961 52.8716 231.616 52.9962C231.271 53.1303 230.629 53.322 230.179 53.4275C229.728 53.5425 228.952 53.6671 228.454 53.7246C227.955 53.7725 225.291 53.8205 217.529 53.8205L217.52 41.6571ZM224.458 33.1169H221.937V41.5996V50.0823C228.051 50.0152 228.252 50.0056 228.885 49.7948C229.259 49.6702 229.795 49.4305 230.083 49.2676C230.37 49.0951 230.84 48.7021 231.127 48.3954C231.415 48.0791 231.721 47.6765 231.808 47.4944C231.904 47.3123 232.076 46.9193 232.181 46.6317C232.296 46.3442 232.478 45.6732 232.593 45.1461C232.785 44.2834 232.814 43.9192 232.804 41.6475C232.804 39.4238 232.785 38.9829 232.603 38.149C232.488 37.6218 232.306 36.9509 232.201 36.6633C232.095 36.3758 231.865 35.8965 231.693 35.609C231.52 35.3214 231.166 34.871 230.897 34.6217C230.639 34.3725 230.092 34.0083 229.699 33.8166C229.192 33.5674 228.693 33.414 227.975 33.2894C227.189 33.1552 226.422 33.1169 224.458 33.1169ZM183.175 35.379C183.673 35.1777 184.085 35.0914 184.756 35.0435C185.255 35.0147 186.079 35.0147 186.577 35.0435C186.854 35.0648 187.128 35.0832 187.333 35.0969C187.497 35.1079 187.617 35.1159 187.66 35.1202C187.813 35.1298 187.823 35.2831 187.823 38.6762L187.516 38.5995C187.344 38.5612 186.529 38.5324 185.714 38.5324C184.296 38.5324 184.21 38.542 183.702 38.7912C183.415 38.935 183.041 39.165 182.888 39.3184C182.725 39.4622 182.504 39.7114 182.389 39.8743C182.284 40.0277 182.092 40.4398 181.968 40.7849C181.747 41.4078 181.747 41.4175 181.69 53.8109L181.69 53.8205H177.377V35.4173H181.69V36.2799L182.102 35.9636C182.322 35.7911 182.811 35.5323 183.175 35.379ZM124.72 35.2256C125.036 35.1777 125.448 35.1202 125.63 35.101C125.812 35.0818 126.924 35.0531 128.103 35.0435C129.272 35.0435 130.566 35.0818 130.978 35.1393C131.38 35.1873 131.936 35.3023 132.195 35.379C132.463 35.4652 132.894 35.6186 133.153 35.7336C133.421 35.8486 133.824 36.0787 134.063 36.2608C134.303 36.4333 134.619 36.7304 134.772 36.9317C134.916 37.1234 135.127 37.4589 135.242 37.6698C135.347 37.8806 135.529 38.3311 135.635 38.6762C135.817 39.2705 135.826 39.5964 135.884 53.8205H131.476V52.862L131.169 53.092C130.997 53.2262 130.613 53.4371 130.326 53.5713C130.038 53.7054 129.54 53.878 129.224 53.9642C128.908 54.0505 128.093 54.1368 127.403 54.1751C126.656 54.2039 125.832 54.1847 125.343 54.1176C124.893 54.0505 124.289 53.9259 124.001 53.83C123.714 53.7342 123.283 53.5521 123.043 53.4371C122.803 53.3125 122.372 52.977 122.085 52.6798C121.778 52.3731 121.433 51.8939 121.28 51.568C121.136 51.2517 120.954 50.667 120.877 50.274C120.81 49.881 120.753 49.143 120.753 48.6446C120.753 48.1462 120.81 47.4081 120.877 47.0151C120.944 46.6221 121.146 45.9895 121.328 45.6253C121.529 45.194 121.836 44.7627 122.181 44.4272C122.468 44.1396 123.014 43.7371 123.378 43.5454C123.752 43.3537 124.413 43.0949 124.864 42.9703C125.611 42.769 125.87 42.7498 127.93 42.7498C129.329 42.7498 130.364 42.7882 130.661 42.8648C130.93 42.9223 131.227 43.0086 131.323 43.0565C131.495 43.1236 131.505 43.0757 131.466 41.7434C131.428 40.5644 131.39 40.2961 131.217 39.9702C131.112 39.7593 130.92 39.5005 130.796 39.3855C130.671 39.28 130.46 39.1171 130.326 39.0404C130.192 38.9542 129.808 38.8104 129.464 38.7241C129.013 38.6091 128.457 38.5612 127.451 38.5708C126.656 38.5708 125.63 38.6379 125.055 38.7337C124.5 38.82 123.666 38.9925 123.187 39.1267C122.717 39.2513 122.248 39.3759 122.161 39.4046C121.999 39.4334 121.989 39.3088 121.989 35.8486L122.401 35.7144C122.621 35.6473 123.11 35.5323 123.474 35.4556C123.848 35.379 124.404 35.2735 124.72 35.2256ZM128.457 45.6828C127.988 45.6924 127.422 45.7212 127.212 45.7691C127.001 45.8074 126.637 45.9224 126.397 46.0279C126.157 46.1333 125.832 46.3633 125.659 46.5455C125.496 46.7276 125.285 47.063 125.199 47.3027C125.123 47.5423 125.055 48.0407 125.055 48.4241C125.055 48.9225 125.113 49.2293 125.247 49.5072C125.352 49.7181 125.563 49.9961 125.707 50.1207C125.851 50.2549 126.186 50.437 126.445 50.5328C126.79 50.6478 127.202 50.6958 127.882 50.6862C128.448 50.6862 129.061 50.6191 129.368 50.5328C129.655 50.4465 130.115 50.2357 130.374 50.0631C130.709 49.8427 130.939 49.5839 131.14 49.2197C131.418 48.7117 131.428 48.635 131.457 47.3698L131.476 46.0566C130.92 45.9129 130.431 45.8266 130.038 45.7691C129.646 45.7212 128.936 45.6828 128.457 45.6828ZM144.652 35.4652C144.921 35.3694 145.39 35.2352 145.706 35.1681C146.109 35.0818 146.914 35.0531 148.39 35.0722C150.201 35.0914 150.584 35.1298 151.073 35.2927C151.389 35.3981 151.878 35.5994 152.156 35.7336C152.433 35.8774 152.846 36.1841 153.085 36.4237C153.325 36.6633 153.622 37.0372 153.756 37.2576C153.88 37.4877 154.082 37.9286 154.187 38.2449C154.293 38.5612 154.446 39.1842 154.523 39.6347C154.637 40.2961 154.666 41.6667 154.666 53.8205H150.354L150.325 47.4177C150.296 41.4175 150.287 40.9862 150.114 40.4494C149.98 40.0373 149.808 39.7401 149.492 39.4238C149.175 39.0979 148.917 38.935 148.533 38.82C148.246 38.7337 147.728 38.6379 147.383 38.6091C147.038 38.5803 146.463 38.6091 146.09 38.6666C145.725 38.7337 145.227 38.8679 144.988 38.9733C144.748 39.0788 144.432 39.28 144.288 39.4238C144.135 39.5676 143.914 39.8743 143.79 40.1139C143.675 40.3536 143.502 40.9095 143.416 41.36C143.291 42.0501 143.263 43.0661 143.263 53.8205H138.855L138.903 35.3694L143.263 35.3214L143.311 36.1745L143.742 35.9061C143.981 35.7528 144.393 35.5611 144.652 35.4652ZM192.949 35.2256C193.266 35.1777 193.678 35.1202 193.86 35.101C194.042 35.0818 195.192 35.0627 196.399 35.0531C197.837 35.0435 198.872 35.0914 199.37 35.1681C199.792 35.2448 200.357 35.3598 200.616 35.4365C200.884 35.5132 201.354 35.7144 201.67 35.8774C201.986 36.0403 202.456 36.3854 202.705 36.6346C202.963 36.8838 203.299 37.3535 203.452 37.6698C203.606 37.9861 203.807 38.542 203.893 38.9158C204.037 39.5101 204.066 40.4111 204.113 53.8205H199.705V52.862L199.399 53.092C199.226 53.2262 198.843 53.4371 198.555 53.5713C198.268 53.7054 197.77 53.878 197.453 53.9642C197.137 54.0505 196.323 54.1368 195.633 54.1751C194.885 54.2039 194.061 54.1847 193.572 54.1176C193.122 54.0505 192.518 53.9259 192.231 53.83C191.943 53.7342 191.512 53.5521 191.273 53.4371C191.033 53.3125 190.602 52.977 190.305 52.6798C189.998 52.3731 189.663 51.9131 189.528 51.6159C189.394 51.3284 189.212 50.8204 189.126 50.4849C189.024 50.0887 188.973 49.4753 188.973 48.6446C188.973 47.6861 189.021 47.226 189.174 46.6509C189.279 46.2483 189.49 45.6924 189.624 45.4336C189.768 45.1652 190.123 44.7147 190.41 44.4272C190.707 44.1396 191.244 43.7371 191.608 43.5454C191.982 43.3537 192.624 43.0949 193.045 42.9799C193.678 42.8073 194.147 42.7594 195.681 42.7306C197.051 42.6923 197.798 42.7211 198.46 42.8265C198.958 42.9032 199.447 42.9894 199.542 43.0278C199.696 43.0757 199.705 42.9894 199.705 41.9543C199.705 41.2258 199.657 40.6603 199.562 40.3536C199.475 40.0852 199.351 39.7785 199.274 39.6539C199.197 39.5388 198.948 39.3184 198.728 39.165C198.498 39.0117 198.038 38.82 197.693 38.7337C197.252 38.6187 196.668 38.5708 195.681 38.5708C194.741 38.5708 193.908 38.6379 193.093 38.772C192.432 38.8775 191.598 39.05 191.225 39.165C191.071 39.2094 190.915 39.2538 190.778 39.2924L190.778 39.2926C190.59 39.3457 190.441 39.388 190.391 39.4046C190.228 39.443 190.218 39.3088 190.218 35.8486L190.63 35.7144C190.851 35.6473 191.34 35.5323 191.704 35.4556C192.077 35.379 192.633 35.2735 192.949 35.2256ZM196.639 45.6828C196.141 45.6828 195.518 45.7403 195.249 45.8074C194.991 45.8745 194.646 45.9895 194.483 46.0758C194.329 46.1621 194.08 46.3442 193.937 46.4784C193.793 46.6126 193.601 46.8618 193.505 47.0343C193.409 47.226 193.333 47.6669 193.304 48.1653C193.275 48.6254 193.304 49.1334 193.371 49.3347C193.429 49.536 193.62 49.8331 193.793 49.9961C193.965 50.1686 194.291 50.389 194.531 50.4945C194.876 50.6478 195.173 50.6862 196.016 50.6862C196.706 50.6862 197.252 50.6287 197.597 50.5328C197.885 50.4465 198.345 50.2357 198.603 50.0631C198.958 49.8235 199.15 49.6031 199.37 49.1813C199.648 48.6446 199.657 48.5391 199.686 47.3314L199.705 46.0566C199.15 45.9129 198.661 45.8266 198.268 45.7691C197.875 45.7212 197.137 45.6828 196.639 45.6828ZM242.061 35.4556C242.454 35.3694 243.173 35.2448 243.642 35.1681C244.256 35.0818 245.281 35.0531 247.14 35.0722C249.593 35.101 249.833 35.1202 250.638 35.3406C251.117 35.4748 251.74 35.6953 252.027 35.8486C252.315 35.9924 252.765 36.3183 253.014 36.5579C253.273 36.7975 253.58 37.1714 253.695 37.3822C253.81 37.5931 254.011 38.0436 254.375 39.0117L254.423 53.8205H250.111V52.862L249.613 53.1974C249.335 53.3891 248.865 53.6288 248.578 53.7342C248.29 53.8396 247.84 53.9834 247.571 54.0409C247.293 54.108 246.383 54.1559 245.415 54.1464C244.141 54.1464 243.595 54.108 243.115 53.9834C242.77 53.8876 242.195 53.6671 241.822 53.485C241.458 53.3029 240.94 52.9482 240.691 52.699C240.432 52.4402 240.106 51.9801 239.953 51.6638C239.8 51.3475 239.608 50.8299 239.522 50.5136C239.426 50.1398 239.378 49.4881 239.378 48.6446C239.378 47.7915 239.426 47.1493 239.531 46.7755C239.608 46.4592 239.8 45.9416 239.943 45.6253C240.097 45.309 240.403 44.8393 240.633 44.5805C240.863 44.3217 241.275 43.9767 241.534 43.8042C241.803 43.6412 242.234 43.4112 242.493 43.3057C242.761 43.2003 243.278 43.0278 243.642 42.9223C244.208 42.7786 244.677 42.7498 246.517 42.7498C248.051 42.7498 248.903 42.7882 249.296 42.884C249.613 42.9511 249.938 43.0374 250.005 43.0757C250.12 43.1236 250.14 42.9319 250.101 41.8392C250.063 40.6795 250.025 40.4878 249.795 39.9893C249.593 39.5676 249.43 39.3759 249.085 39.1554C248.836 39.0021 248.348 38.8008 248.003 38.7145C247.581 38.6091 246.948 38.5612 246.038 38.5708C245.166 38.5708 244.284 38.6379 243.499 38.7625C242.837 38.8679 242.004 39.05 241.63 39.1554C241.407 39.2259 241.177 39.2928 241.012 39.3406C240.908 39.3709 240.83 39.3935 240.796 39.4046C240.643 39.4334 240.624 39.3088 240.624 35.8486L240.978 35.7336C241.18 35.6665 241.668 35.5419 242.061 35.4556ZM247.476 45.7116C246.738 45.6924 245.942 45.7212 245.703 45.7691C245.463 45.8266 245.061 45.9895 244.812 46.1333C244.553 46.2771 244.246 46.5167 244.122 46.6797C244.007 46.833 243.834 47.2068 243.748 47.4944C243.662 47.7819 243.595 48.1749 243.595 48.357C243.595 48.5391 243.662 48.9034 243.738 49.1717C243.815 49.4305 243.968 49.7756 244.093 49.929C244.217 50.0823 244.553 50.3219 244.84 50.4465C245.3 50.6478 245.511 50.6862 246.421 50.6862C247.265 50.6862 247.6 50.6478 248.098 50.4753C248.443 50.3603 248.894 50.1494 249.095 50.0056C249.335 49.8427 249.574 49.536 249.766 49.1717C250.044 48.635 250.063 48.5104 250.101 47.3506L250.14 46.1046C249.038 45.8074 248.376 45.7403 247.476 45.7116ZM256.598 37.9094C256.138 36.6729 255.765 35.5994 255.765 35.5323C255.765 35.4365 256.263 35.4173 260.384 35.4652L260.661 36.232C260.805 36.6538 261.189 37.756 261.514 38.6762C261.649 39.0576 261.798 39.4819 261.938 39.8834L261.947 39.9106L261.95 39.9185L261.951 39.9217L261.954 39.9308C262.146 40.4795 262.321 40.9805 262.425 41.2641C262.514 41.521 262.643 41.8873 262.777 42.2647L262.779 42.2706L262.784 42.2848L262.791 42.3044L262.793 42.3103C262.913 42.6507 263.036 42.9968 263.134 43.277C263.345 43.8808 263.738 45.0023 264.015 45.7691C264.284 46.5359 264.533 47.226 264.581 47.3027C264.619 47.3889 265.165 45.8745 266.066 43.1332C266.842 40.7561 267.724 38.0628 268.586 35.4652L272.975 35.4077L272.995 35.6282C273.004 35.7528 272.793 36.4908 272.525 37.2864C272.436 37.5457 272.316 37.8978 272.179 38.297L272.175 38.3084C271.897 39.1173 271.554 40.1168 271.279 40.9287C270.952 41.887 270.318 43.7566 269.725 45.5032L269.276 46.8234C268.989 47.6702 268.693 48.5386 268.431 49.3073C268.065 50.3832 267.765 51.2637 267.647 51.6159C267.446 52.2198 267.015 53.4946 266.689 54.4435C266.363 55.3924 265.913 56.5522 265.673 57.0314C265.443 57.5011 265.031 58.1912 264.753 58.5554C264.475 58.9293 263.968 59.4564 263.623 59.7344C263.278 60.0219 262.703 60.4053 262.329 60.5779C261.965 60.76 261.332 60.9804 260.939 61.0667C260.393 61.1817 259.914 61.2105 258.927 61.1721C258.218 61.1434 257.394 61.0667 257.106 60.9996C256.819 60.9421 256.397 60.8079 255.765 60.5299L255.832 58.8238C255.86 57.8941 255.889 57.1177 255.899 57.1081C255.908 57.1081 256.234 57.1848 256.627 57.2806C257.02 57.3861 257.739 57.5107 258.208 57.5778C258.994 57.6736 259.128 57.664 259.742 57.4819C260.23 57.3382 260.546 57.1656 260.891 56.8589C261.16 56.6289 261.505 56.1784 261.677 55.8717C261.84 55.5553 262.089 54.9707 262.473 53.8205L261.476 51.1079C260.93 49.6222 259.952 46.9768 259.31 45.2419C258.659 43.4974 258.074 41.9063 257.997 41.6955C257.93 41.4846 257.825 41.2258 257.777 41.1204C257.729 41.0149 257.633 40.7561 257.557 40.5453L257.467 40.2979C257.301 39.8417 256.956 38.8906 256.598 37.9094ZM54.1907 60.2328C55.2448 60.1753 56.6247 60.0507 57.2572 59.9548C57.8896 59.859 58.5413 59.7823 58.9821 59.7631L58.5509 60.1657C58.3113 60.3958 57.8321 60.8175 57.4967 61.105C57.1518 61.4022 56.5289 61.9006 56.1072 62.2169C55.6856 62.5428 54.8902 63.0987 54.3344 63.463C53.7786 63.8368 52.9833 64.3352 52.5616 64.5748C52.14 64.8144 51.2584 65.2649 50.5971 65.5812C49.9359 65.8975 49.016 66.3097 48.5368 66.4918C48.0673 66.6835 47.2048 66.9902 46.6203 67.1723C46.0453 67.364 45.3745 67.5653 45.1349 67.6228C44.8954 67.6803 44.2342 67.8337 43.6496 67.9679C43.0746 68.0925 42.1451 68.265 41.5893 68.3513C41.0335 68.428 40.1711 68.5334 39.6728 68.5813C39.1745 68.6293 37.9191 68.6676 36.8937 68.6676C35.8684 68.6676 34.613 68.6293 34.1147 68.5813C33.6164 68.5334 32.7348 68.428 32.1503 68.3417C31.5753 68.265 30.7991 68.1308 30.4254 68.0446L30.2772 68.0095L30.2765 68.0093L30.2753 68.0091C29.9009 67.9205 29.3566 67.7917 28.9879 67.6995C28.5663 67.6037 27.7518 67.364 27.1672 67.1723C26.5922 66.9902 25.7298 66.6835 25.2507 66.5014C24.7811 66.3193 23.6503 65.8017 22.74 65.3608C21.8296 64.9199 21.0821 64.5077 21.0821 64.4598C21.0821 64.4023 21.1588 64.3831 21.2546 64.4119C21.3409 64.4406 21.7625 64.5556 22.1842 64.6515C22.6058 64.7569 23.5162 64.9295 24.1966 65.0541C25.2602 65.2362 25.7777 65.2649 27.7422 65.2649C29.8121 65.2553 30.1858 65.2362 31.4316 65.0061L31.571 64.98L31.7808 64.9407L31.7815 64.9406L31.7849 64.94C32.4642 64.8128 33.1823 64.6783 33.4919 64.6131C33.8656 64.5365 34.7664 64.316 35.5042 64.1243C36.2421 63.9326 37.0662 63.7122 37.325 63.6259C37.4769 63.577 37.7272 63.4974 37.9976 63.4115C38.2046 63.3457 38.4233 63.2761 38.6187 63.2137C39.069 63.0604 40.5735 62.5236 41.9726 62.0156C43.3717 61.5076 44.8762 61.0092 45.3266 60.9133C45.777 60.8175 46.7928 60.6929 47.5786 60.6354C48.1962 60.5907 49.1664 60.5287 49.9864 60.4763L49.9934 60.4759C50.2268 60.4609 50.4479 60.4468 50.6451 60.4341C51.1164 60.409 51.7767 60.3708 52.4501 60.3319C53.0637 60.2964 53.6882 60.2602 54.1907 60.2328ZM207.879 65.6579C208.052 65.5333 208.292 65.3799 208.426 65.332C208.56 65.2745 209.087 65.2362 209.595 65.2458C210.457 65.2745 210.553 65.2937 210.936 65.5621C211.166 65.725 211.444 66.0317 211.559 66.233C211.684 66.4535 211.808 66.8752 211.847 67.2394C211.895 67.7091 211.866 67.9871 211.741 68.3896C211.636 68.7059 211.435 69.0606 211.224 69.281C210.984 69.5303 210.706 69.6932 210.342 69.7986C210.007 69.8945 209.604 69.9328 209.24 69.9041C208.924 69.8753 208.474 69.7699 208.234 69.6548C207.947 69.5207 207.707 69.3098 207.496 68.9935C207.314 68.7251 207.151 68.3513 207.122 68.1021C207.084 67.8625 207.084 67.4503 207.113 67.1915C207.132 66.9231 207.247 66.5301 207.362 66.3001C207.477 66.0797 207.707 65.7921 207.879 65.6579ZM81.7412 89.86V77.735V65.61H86.1493V89.86H81.7412ZM162.904 66.9969C163.248 66.9092 163.595 66.8208 163.866 66.7506C164.422 66.6164 164.968 66.4918 165.303 66.4726V71.4568H170.478V75.0991H165.303L165.351 84.732L165.639 85.3071C165.869 85.7576 166.022 85.9301 166.357 86.1218C166.76 86.3423 166.875 86.3615 168.082 86.3519C169.05 86.3423 169.558 86.2944 170.813 85.9589L170.842 87.7896C170.852 88.7961 170.852 89.6299 170.842 89.6395C170.823 89.6587 170.43 89.7641 169.951 89.8792C169.222 90.0517 168.801 90.0804 167.268 90.09C165.677 90.09 165.361 90.0613 164.709 89.8792C164.297 89.7641 163.741 89.5533 163.463 89.4095C163.185 89.2753 162.725 88.9398 162.447 88.6714C162.17 88.4031 161.815 87.9238 161.652 87.6075C161.489 87.2912 161.278 86.6778 161.173 86.2369C161.01 85.5084 160.991 85.0483 160.991 75.0991H157.733V71.4568H160.991V67.4791L161.92 67.249C162.182 67.1811 162.535 67.0911 162.891 67.0002L162.901 66.9976L162.904 66.9969ZM95.4925 71.4472C95.8662 71.3322 96.422 71.2076 96.7383 71.1597C97.0545 71.1214 98.0703 71.1022 98.9902 71.1214C100.121 71.1405 100.859 71.2076 101.242 71.3035C101.558 71.3897 102.124 71.6006 102.488 71.7827C102.881 71.9648 103.341 72.2907 103.59 72.5495C103.83 72.7987 104.146 73.2013 104.29 73.4505C104.433 73.6997 104.634 74.1598 104.73 74.4761C104.836 74.7924 104.96 75.3579 105.018 75.7413C105.085 76.1918 105.123 78.7893 105.123 89.86H100.811V83.7927C100.811 80.0641 100.773 77.4954 100.715 77.112C100.658 76.7669 100.523 76.3164 100.418 76.1055C100.313 75.8947 100.102 75.5975 99.9677 75.4538C99.8239 75.31 99.4981 75.0991 99.2298 74.9937C98.9327 74.8691 98.444 74.7732 97.9361 74.7445C97.4857 74.7157 96.8149 74.7349 96.4316 74.802C96.0483 74.8595 95.5692 74.9937 95.3775 75.1087C95.1763 75.2141 94.9175 75.3963 94.793 75.5113C94.6684 75.6263 94.4767 75.8755 94.3617 76.0576C94.2563 76.2397 94.0838 76.6902 93.9784 77.064C93.8059 77.6871 93.7868 78.1663 93.7197 89.86H89.4074V71.4568H93.7197L93.7676 72.3099L94.2947 71.9744C94.5821 71.7923 95.1284 71.5527 95.4925 71.4472ZM129.799 71.4089C130.115 71.3226 130.613 71.2076 130.901 71.1693C131.188 71.1214 132.137 71.1022 133.009 71.1214C134.226 71.1501 134.772 71.198 135.357 71.361C135.779 71.4664 136.488 71.7444 136.928 71.9648C137.465 72.2332 137.916 72.5399 138.261 72.8946C138.558 73.1821 138.903 73.5943 139.046 73.8051C139.19 74.016 139.43 74.4282 139.564 74.7157C139.708 75.0033 139.928 75.655 140.062 76.1535C140.225 76.7957 140.311 77.4474 140.359 78.358C140.388 79.0673 140.388 80.16 140.292 81.9045H128.984V82.2591C128.984 82.4604 129.051 82.8821 129.138 83.1984C129.214 83.5147 129.406 84.0419 129.569 84.3678C129.722 84.7033 130.058 85.1825 130.307 85.4317C130.556 85.6905 130.949 85.9972 131.188 86.1218C131.428 86.2369 131.926 86.419 132.29 86.5244C132.817 86.6682 133.258 86.7065 134.379 86.6969C135.156 86.6969 135.826 86.6778 135.865 86.6586C135.903 86.6394 136.411 86.5532 136.986 86.4669C137.571 86.3806 138.395 86.1985 139.621 85.8343L139.631 89.4287L139.363 89.5437C139.219 89.6012 138.749 89.745 138.328 89.8504C137.906 89.9558 137.197 90.09 136.746 90.1475C136.296 90.1955 135.127 90.2434 134.14 90.2434C133.153 90.2434 132.003 90.1955 131.6 90.138C131.188 90.0804 130.527 89.9463 130.134 89.8408C129.741 89.7354 129.071 89.4862 128.649 89.2849C128.227 89.0836 127.624 88.7002 127.307 88.451C126.991 88.1922 126.522 87.7225 126.272 87.4062C126.014 87.0995 125.64 86.4957 125.439 86.0739C125.237 85.6522 124.95 84.8758 124.816 84.3486C124.576 83.4764 124.548 83.1793 124.509 81.2335C124.48 79.8341 124.5 78.7702 124.576 78.2142C124.634 77.735 124.778 77.0257 124.883 76.6327C124.988 76.2397 125.295 75.4633 125.563 74.9074C125.985 74.0639 126.177 73.7764 126.828 73.1342C127.432 72.5303 127.767 72.2811 128.409 71.9648C128.86 71.754 129.483 71.4952 129.799 71.4089ZM132.53 74.524C132.243 74.5336 131.744 74.6103 131.428 74.7157C131.112 74.8116 130.681 75.0416 130.47 75.2237C130.259 75.3963 129.952 75.7509 129.789 76.0193C129.626 76.2781 129.396 76.7861 129.281 77.1599C129.166 77.5241 129.042 78.0992 129.004 78.4251L128.936 79.029H136.171C136.171 78.6935 136.085 78.1855 135.98 77.6871C135.865 77.1503 135.654 76.5369 135.472 76.211C135.309 75.8947 134.974 75.4729 134.734 75.2717C134.456 75.0224 134.092 74.8307 133.68 74.7061C133.335 74.6007 132.817 74.524 132.53 74.524ZM146.665 71.4089C146.981 71.3226 147.517 71.2172 147.862 71.1789C148.207 71.1309 148.984 71.0926 149.587 71.083C150.191 71.083 151.054 71.1118 151.504 71.1693C151.954 71.2172 152.663 71.3418 153.085 71.4472C153.507 71.5527 154.178 71.7731 154.57 71.9265C154.963 72.0894 155.299 72.2236 155.318 72.2236C155.327 72.2236 155.337 73.0192 155.337 73.9968C155.337 74.9745 155.327 75.7701 155.318 75.7701C155.299 75.7701 155.03 75.6838 154.714 75.5784C154.398 75.4633 153.775 75.2716 153.325 75.147C152.874 75.0224 152.165 74.8691 151.743 74.802C151.322 74.7349 150.507 74.687 149.923 74.6774C149.348 74.6774 148.677 74.7349 148.437 74.802C148.198 74.8691 147.853 75.0129 147.671 75.1375C147.479 75.2621 147.249 75.5304 147.125 75.7988C147 76.048 146.904 76.3548 146.904 76.4889C146.904 76.6231 146.99 76.9011 147.096 77.112C147.22 77.3516 147.441 77.5816 147.7 77.7254C147.92 77.8596 148.428 78.0705 148.821 78.1951C149.214 78.3293 150.229 78.6168 151.073 78.8373C151.916 79.0577 152.654 79.2782 152.702 79.3261C152.759 79.374 152.855 79.4124 152.922 79.4124C152.989 79.4124 153.248 79.5082 153.497 79.6232C153.746 79.7382 154.187 79.9779 154.475 80.1696C154.762 80.3517 155.212 80.7159 155.471 80.9843C155.72 81.2527 156.056 81.7319 156.209 82.0482C156.353 82.3645 156.525 82.863 156.592 83.1505C156.659 83.4668 156.688 84.1761 156.659 84.9716C156.621 86.1794 156.602 86.3135 156.295 87.0324C156.065 87.5692 155.807 87.9622 155.423 88.3743C155.04 88.7865 154.666 89.0548 154.082 89.352C153.641 89.5724 152.932 89.8504 152.51 89.9654C151.878 90.1379 151.379 90.1763 149.635 90.2146C148.284 90.2434 147.22 90.2242 146.665 90.1475C146.195 90.09 145.39 89.9367 144.892 89.8121C144.393 89.6875 143.704 89.4862 142.736 89.1411L142.717 87.3391C142.697 86.3519 142.726 85.5467 142.764 85.5467C142.803 85.5467 143.244 85.6713 143.742 85.8343C144.24 85.9972 144.786 86.1698 144.94 86.2177C145.103 86.2656 145.764 86.3902 146.425 86.5052C147.201 86.6299 148.083 86.7065 148.917 86.7065C149.961 86.7161 150.344 86.6778 150.881 86.5148C151.303 86.3902 151.667 86.2081 151.868 86.026C152.041 85.8631 152.242 85.5755 152.318 85.3742C152.405 85.1825 152.472 84.895 152.462 84.7512C152.462 84.6074 152.386 84.3295 152.28 84.1282C152.184 83.9365 152.002 83.6777 151.878 83.5627C151.753 83.4572 151.475 83.2751 151.264 83.1697C151.054 83.0642 150.689 82.93 150.45 82.863C150.243 82.8134 149.98 82.7352 149.806 82.6839L149.762 82.6707L149.731 82.6617C149.578 82.6137 148.84 82.422 148.102 82.2495C147.364 82.0674 146.463 81.8086 146.09 81.6648C145.725 81.5115 145.227 81.291 144.988 81.1472C144.748 81.013 144.432 80.8118 144.269 80.6967C144.116 80.5817 143.799 80.2558 143.579 79.9683C143.359 79.6903 143.061 79.1536 142.937 78.7893C142.726 78.2142 142.697 77.9459 142.688 76.9394C142.688 76.2972 142.736 75.54 142.793 75.2621C142.851 74.9841 143.042 74.4473 143.224 74.0639C143.442 73.6039 143.735 73.1885 144.106 72.8179C144.461 72.4632 144.901 72.1469 145.371 71.9169C145.764 71.7252 146.348 71.5048 146.665 71.4089ZM176.036 71.4472C176.592 71.3322 177.387 71.2172 177.809 71.1693C178.23 71.1309 179.246 71.0926 180.061 71.083C180.875 71.083 181.948 71.1214 182.437 71.1693C182.926 71.2172 183.616 71.3322 183.97 71.4281C184.325 71.5143 184.833 71.6773 185.092 71.8019C185.36 71.9169 185.753 72.1374 185.973 72.2811C186.194 72.4345 186.539 72.77 186.749 73.0383C186.951 73.2971 187.2 73.671 187.286 73.8531C187.382 74.0352 187.535 74.5336 187.641 74.9553C187.813 75.6742 187.823 76.1343 187.823 89.86H183.51V89.4287C183.51 89.189 183.491 88.9973 183.463 88.9973C183.434 88.9973 183.28 89.1028 183.108 89.2274C182.935 89.352 182.619 89.5341 182.408 89.6395C182.198 89.745 181.766 89.9079 181.45 90.0133C180.961 90.1667 180.588 90.1955 178.863 90.1955C177.023 90.1955 176.793 90.1763 176.132 89.9654C175.739 89.8408 175.173 89.6012 174.886 89.4287C174.598 89.2561 174.186 88.9207 173.976 88.6906C173.755 88.4606 173.449 88.0005 173.286 87.6554C173.123 87.3104 172.921 86.6682 172.835 86.2177C172.749 85.7672 172.682 85.125 172.682 84.7799C172.682 84.4349 172.749 83.7639 172.835 83.2943C172.931 82.7479 173.104 82.1824 173.314 81.7607C173.487 81.3869 173.803 80.9076 174.004 80.6872C174.196 80.4763 174.618 80.1121 174.934 79.9012C175.25 79.6807 175.557 79.4986 175.605 79.5082C175.662 79.5082 175.806 79.4507 175.94 79.374C176.074 79.3069 176.592 79.144 177.09 79.0194C177.905 78.8181 178.221 78.7989 179.917 78.7989C181.345 78.8085 182.016 78.8468 182.533 78.9619C182.916 79.0481 183.3 79.1248 183.395 79.1248C183.549 79.1248 183.558 79.0194 183.501 77.8979C183.463 76.8436 183.415 76.604 183.194 76.1247C183.022 75.7509 182.811 75.4825 182.533 75.2812C182.303 75.1279 181.968 74.9553 181.786 74.8978C181.603 74.8499 181.019 74.7636 180.492 74.7061C179.792 74.6295 179.189 74.6295 178.24 74.7061C177.531 74.7732 176.515 74.9074 175.988 75.0128C175.461 75.1279 174.828 75.3004 174.579 75.3962C174.33 75.4921 174.1 75.5784 174.071 75.5784C174.043 75.5784 174.023 74.7541 174.023 71.9361L174.531 71.7827C174.809 71.706 175.48 71.5527 176.036 71.4472ZM181.163 81.7894C180.741 81.7703 180.07 81.7894 179.677 81.8182C179.246 81.8565 178.757 81.962 178.441 82.1057C178.154 82.2303 177.78 82.4987 177.607 82.6904C177.416 82.9109 177.224 83.2751 177.128 83.601C177.013 83.994 176.985 84.3295 177.032 84.7512C177.061 85.0867 177.157 85.4701 177.224 85.6138C177.301 85.7576 177.445 85.9685 177.54 86.0835C177.636 86.1889 177.905 86.3902 178.144 86.5148C178.537 86.7257 178.69 86.7449 179.869 86.7353C180.971 86.7353 181.239 86.7065 181.69 86.5244C181.977 86.4094 182.389 86.1698 182.6 85.9972C182.83 85.8055 183.079 85.4605 183.213 85.1538C183.424 84.6937 183.453 84.4924 183.453 83.3901L183.463 82.1441C182.274 81.9045 181.584 81.8086 181.163 81.7894ZM194.914 71.3897C195.259 71.3035 195.776 71.2076 196.064 71.1693C196.351 71.1309 197.108 71.0926 197.741 71.083C198.373 71.0734 199.255 71.1118 199.705 71.1693C200.156 71.2268 200.932 71.3801 201.43 71.5143C201.929 71.6389 202.59 71.869 203.452 72.2716V74.016C203.443 74.9841 203.423 75.7701 203.395 75.7701C203.366 75.7701 203.059 75.6646 202.705 75.5304C202.35 75.4058 201.622 75.195 201.095 75.0608C200.568 74.9266 199.619 74.7732 198.987 74.7061C198.124 74.6295 197.664 74.6295 197.118 74.7061C196.725 74.7732 196.275 74.8787 196.112 74.9553C195.958 75.032 195.7 75.2046 195.556 75.3579C195.403 75.5017 195.24 75.7221 195.192 75.8372C195.144 75.9618 195.106 76.2781 195.106 76.556C195.115 77.0257 195.144 77.0928 195.518 77.4474C195.738 77.6679 196.16 77.9267 196.447 78.0417C196.735 78.1471 197.645 78.4155 198.46 78.6264C199.274 78.8468 200.223 79.1152 200.568 79.2207C200.913 79.3357 201.43 79.537 201.718 79.6712C202.005 79.8053 202.504 80.0929 202.82 80.3133C203.136 80.5434 203.558 80.9076 203.749 81.1472C203.931 81.3773 204.2 81.7798 204.334 82.0482C204.458 82.307 204.64 82.8534 204.727 83.2464C204.813 83.6393 204.88 84.2624 204.88 84.6362C204.88 85.0004 204.813 85.633 204.727 86.026C204.64 86.419 204.42 87.0228 204.248 87.3679C204.066 87.713 203.788 88.1251 203.634 88.2976C203.481 88.4702 203.146 88.7673 202.896 88.959C202.647 89.1507 202.283 89.3711 202.101 89.4478C201.919 89.5245 201.469 89.6875 201.095 89.8121C200.731 89.9367 200.117 90.0804 199.734 90.138C199.351 90.1955 198.23 90.2434 197.243 90.2434C196.256 90.2338 195.115 90.1955 194.722 90.1475C194.329 90.09 193.707 89.9846 193.333 89.8983C192.969 89.8121 192.336 89.6395 191.943 89.5149C191.55 89.3807 191.129 89.2274 191.004 89.1603C190.793 89.0453 190.793 89.0165 190.793 87.2912C190.793 86.3327 190.832 85.5467 190.87 85.5467C190.908 85.5372 191.129 85.6043 191.368 85.6905C191.608 85.7768 192.192 85.9493 192.662 86.0835C193.141 86.2177 194.023 86.4094 194.626 86.5148C195.364 86.6394 196.188 86.7065 197.118 86.7065C198.287 86.7065 198.603 86.6682 199.082 86.5052C199.399 86.3902 199.763 86.2273 199.897 86.1314C200.031 86.0356 200.232 85.7672 200.357 85.5372C200.472 85.3071 200.568 84.9621 200.568 84.7799C200.568 84.5978 200.472 84.2528 200.357 84.0227C200.194 83.716 200.002 83.5243 199.657 83.323C199.399 83.1793 198.833 82.9492 198.412 82.8246C197.99 82.7 197.147 82.4796 196.543 82.3358C195.939 82.1824 195.144 81.9715 194.77 81.8565C194.406 81.7415 193.822 81.5019 193.477 81.3389C193.132 81.1664 192.633 80.8405 192.365 80.6296C192.097 80.4092 191.732 80.0354 191.57 79.7958C191.407 79.5561 191.167 79.0673 191.033 78.7127C190.832 78.1567 190.793 77.9075 190.793 76.9203C190.793 76.1726 190.851 75.5592 190.947 75.1662C191.033 74.8403 191.186 74.3802 191.292 74.1406C191.407 73.901 191.665 73.4888 191.886 73.2205C192.106 72.9425 192.499 72.5687 192.758 72.3674C193.026 72.1661 193.477 71.9073 193.764 71.7731C194.052 71.6485 194.569 71.476 194.914 71.3897ZM107.241 74.016C106.81 72.77 106.465 71.6773 106.465 71.6006C106.474 71.4664 106.771 71.4568 111.074 71.5048L113.106 77.5625C114.227 80.898 115.166 83.601 115.195 83.5531C115.233 83.5147 116.163 80.7734 119.258 71.4568H123.714V71.7156C123.714 71.8594 122.995 74.1215 122.114 76.7286C121.67 78.0559 121.101 79.7484 120.365 81.9427L120.363 81.9473C119.653 84.0622 118.787 86.6431 117.725 89.8121H112.569L112.492 89.5724C112.454 89.4382 111.687 87.157 110.777 84.4924C110.437 83.4877 110.084 82.4449 109.759 81.4861L109.753 81.4677C109.219 79.8916 108.763 78.5456 108.573 77.9746C108.393 77.4347 108.111 76.5979 107.823 75.7448L107.823 75.7434L107.819 75.7329L107.819 75.7322C107.618 75.1354 107.414 74.5313 107.241 74.016ZM207.276 89.86V80.6584V71.4568H211.588V89.86H207.276Z" fill="#263E7A"/>
<path d="M66.7921 45.8649C66.3992 46.3058 65.623 47.0726 65.0672 47.5711C64.5114 48.0791 63.6106 48.8267 63.0548 49.2388C62.4415 49.6893 61.5311 50.2453 60.707 50.6574C59.9691 51.0216 59.0204 51.4338 58.5988 51.5584C58.1771 51.6926 57.5351 51.846 57.1614 51.913C56.7972 51.9706 55.8485 52.0185 55.0531 52.0185C54.2673 52.0089 52.667 51.9418 51.5075 51.8555C50.348 51.7789 48.1056 51.6159 46.5245 51.5009C44.5887 51.3571 42.7584 51.2804 40.9185 51.2804C39.2703 51.2804 37.8137 51.3284 37.2579 51.3955C36.7404 51.4626 35.9259 51.6255 35.4372 51.7501C35.1209 51.8308 34.5356 51.9877 33.9179 52.1533L33.9178 52.1534L33.9166 52.1537C33.5803 52.2439 33.2343 52.3366 32.9169 52.4211C32.0257 52.6703 31.0099 52.9386 30.6649 53.0153C30.32 53.092 29.5437 53.255 28.94 53.3796C28.3363 53.5137 27.426 53.6863 26.9276 53.7725C26.4293 53.8588 25.5477 53.993 24.9632 54.0697C24.637 54.1077 24.2183 54.1612 23.8296 54.2109C23.5331 54.2488 23.254 54.2844 23.0466 54.3093C22.5483 54.3668 21.5325 54.3956 20.6509 54.3668C19.8076 54.3381 18.9069 54.271 18.6385 54.2134C18.4081 54.1622 17.9346 54.0654 17.5359 53.9839L17.5352 53.9838L17.3928 53.9547C16.9711 53.8684 16.2141 53.6671 15.7158 53.5137C15.2175 53.3604 14.6713 53.1687 14.4988 53.092C14.3263 53.0153 14.1634 52.9578 14.1346 52.9578C14.1059 52.9578 13.8663 52.862 13.5884 52.7374C13.3105 52.6223 12.6397 52.2965 12.1031 52.0185C11.5569 51.7405 10.8669 51.3571 10.5698 51.175C10.3774 51.0547 10.1246 50.8892 9.89672 50.7399L9.89649 50.7397C9.76126 50.6511 9.63479 50.5683 9.53488 50.5041C9.27615 50.3315 8.72993 49.9577 8.33704 49.6606C7.94414 49.373 7.60874 49.1334 7.58958 49.1526C7.58 49.1622 7.75249 49.5839 7.97289 50.0823C8.20288 50.5807 8.6341 51.4626 8.95034 52.0472C9.25699 52.6223 9.90861 53.7054 10.4069 54.4435C10.8956 55.1815 11.6239 56.1975 12.0264 56.696C12.4289 57.1944 13.2147 58.1049 13.7896 58.7088C14.4796 59.4468 15.1121 60.0124 15.7254 60.4245C16.2237 60.7696 17.1436 61.3255 17.7761 61.6514C18.4085 61.9869 19.2518 62.4086 19.6447 62.6003C20.0376 62.7824 20.7276 63.0604 21.178 63.2137C21.6284 63.3671 22.3375 63.578 22.7591 63.6834C23.1808 63.7793 23.9953 63.9326 24.5607 64.0189C25.1548 64.1051 26.2281 64.1722 27.1001 64.1722C27.9243 64.1722 29.1221 64.1051 29.7546 64.0285C30.387 63.9422 31.2303 63.8176 31.6232 63.7313C32.0161 63.6547 33.166 63.3863 34.1627 63.1466C35.1688 62.907 36.3763 62.5907 36.8458 62.4469C37.325 62.2936 38.2066 61.9773 38.8103 61.7377C39.414 61.498 40.3244 61.1242 40.8227 60.9038C41.2202 60.7279 41.8252 60.4727 42.3066 60.2696C42.4286 60.2181 42.5427 60.17 42.6434 60.1274C43.1417 59.9165 43.6879 59.7056 43.8413 59.6577C44.0042 59.6002 44.3492 59.5139 44.6079 59.4564C44.8762 59.3989 45.3266 59.3127 45.6141 59.2743C45.9016 59.2264 48.4314 59.1497 51.22 59.0922C54.0182 59.0443 56.7301 58.958 57.2572 58.9005C57.7842 58.843 58.5413 58.7088 58.9342 58.5938C59.3271 58.4883 59.9308 58.2583 60.2758 58.0762C60.7932 57.8174 61.0136 57.6161 61.5311 56.9643C61.8857 56.5234 62.4511 55.7758 62.796 55.3061C63.141 54.8269 63.6489 54.0793 63.9268 53.6288C64.2047 53.1783 64.7797 52.1239 65.2109 51.2804C65.6421 50.437 66.1308 49.3826 66.3033 48.9321C66.4662 48.4816 66.6387 48.0503 66.6866 47.9736C66.725 47.8969 66.9454 47.2452 67.1658 46.5359C67.3958 45.8266 67.5587 45.2036 67.5395 45.1556C67.5299 45.1077 67.185 45.4336 66.7921 45.8649Z" fill="#2576B8"/>
</svg>