<svg xmlns="http://www.w3.org/2000/svg" version="1.1" width="5254" height="1239">
<path d="M0 0 C5.13553925 0.41295844 10.18668219 1.42878841 15.21875 2.50390625 C16.26135986 2.7261084 17.30396973 2.94831055 18.37817383 3.17724609 C59.59220282 12.27195343 97.32934419 29.77933555 134.76974487 48.73753357 C210.36938547 87.14598152 210.36938547 87.14598152 293.40625 99.94140625 C294.34578522 99.94280609 295.28532043 99.94420593 296.25332642 99.94564819 C311.4649004 99.9273396 326.47542278 98.96592802 341.59375 97.31640625 C342.95367065 97.16931717 342.95367065 97.16931717 344.34106445 97.01925659 C351.04304747 96.27812211 357.72554253 95.41595423 364.40625 94.50390625 C365.59413116 94.34305542 366.78201233 94.18220459 368.00588989 94.01647949 C389.07390644 91.11656591 409.83884013 87.17341226 430.62084961 82.67529297 C434.6815751 81.79640127 438.74574471 80.93475091 442.81106472 80.07739925 C479.81204302 72.25962509 516.25658037 62.98122468 547.40625 40.50390625 C548.8603125 39.45976562 548.8603125 39.45976562 550.34375 38.39453125 C564.60292844 27.92294708 578.1070881 16.20944296 590.27734375 3.375 C592.40625 1.50390625 592.40625 1.50390625 595.40625 1.50390625 C605.65283486 19.30762528 614.72757559 37.42198299 621.90625 56.69140625 C622.52016602 58.33774048 622.52016602 58.33774048 623.14648438 60.01733398 C624.2868939 63.16372769 625.35127345 66.32800543 626.40625 69.50390625 C626.98620728 71.03640015 626.98620728 71.03640015 627.57788086 72.59985352 C628.97941182 76.81661891 629.96642592 79.91501486 628.45556641 84.20043945 C626.80230481 87.00314881 624.97708456 89.5064636 622.96875 92.06640625 C622.2787793 93.00605225 621.58880859 93.94569824 620.87792969 94.91381836 C619.44851374 96.8529245 618.00287136 98.7801708 616.54150391 100.6953125 C614.53783283 103.33082954 612.59319061 105.99826754 610.66796875 108.69140625 C604.44151035 117.36746416 597.9351659 125.68985548 590.90893555 133.73046875 C589.74682218 135.10197021 588.6130212 136.49749031 587.49145508 137.90234375 C581.64004619 145.2243084 575.36029344 151.91003096 568.71875 158.50390625 C568.19056671 159.03026672 567.66238342 159.5566272 567.11819458 160.09893799 C550.68013589 176.44169548 532.75378113 189.47095321 511.78125 199.37890625 C510.7205983 199.88565887 510.7205983 199.88565887 509.63851929 200.40264893 C478.86744094 215.09673453 447.02051666 228.0855516 413.40625 234.50390625 C412.25125 234.7359375 411.09625 234.96796875 409.90625 235.20703125 C354.68006851 245.06884937 300.22675493 220.75815151 249.72894287 201.35220337 C194.39803154 180.10753198 142.96303578 173.26142019 83.98205566 172.05926514 C54.86562534 171.46246056 26.96465839 170.75353538 0.40625 157.50390625 C-1.08261719 156.76140625 -1.08261719 156.76140625 -2.6015625 156.00390625 C-15.75054027 149.11099482 -27.7191267 140.03613163 -39.51074219 131.07275391 C-40.81711929 130.08883697 -42.14375924 129.13069577 -43.49707031 128.21240234 C-46.36844952 126.15096402 -47.50709617 124.99536628 -48.12890625 121.46875 C-47.61773358 115.9352686 -46.26594649 110.47323457 -45.03125 105.06640625 C-44.75949951 103.87136475 -44.48774902 102.67632324 -44.20776367 101.44506836 C-37.24190321 71.41460233 -26.69212449 42.93426568 -12.59375 15.50390625 C-12.18882324 14.69920898 -11.78389648 13.89451172 -11.36669922 13.06542969 C-10.25016404 10.8765968 -9.09082332 8.71901518 -7.90625 6.56640625 C-7.58640137 5.93887451 -7.26655273 5.31134277 -6.93701172 4.66479492 C-4.95726445 1.25424376 -3.94614516 0.55331818 0 0 Z " fill="#FFFFFF" transform="translate(321.59375,438.49609375)"/>
<path d="M0 0 C0.66 0 1.32 0 2 0 C4.46794059 8.91131697 5.96356828 17.77148084 7.125 26.9375 C7.29386719 28.20529297 7.46273437 29.47308594 7.63671875 30.77929688 C9.491679 45.02743646 10.2365067 59.08624166 10.25 73.4375 C10.25133942 74.2823999 10.25267883 75.1272998 10.25405884 75.99780273 C10.2500584 87.7232099 9.83647941 99.32967288 8.6875 111 C8.56987305 112.22001709 8.45224609 113.44003418 8.33105469 114.69702148 C7.23354515 124.55004671 4.11886011 131.29960199 -1.625 139.25 C-2.16205566 139.99942871 -2.69911133 140.74885742 -3.25244141 141.52099609 C-22.66040162 168.39133147 -46.25618129 189.5759188 -75 206 C-75.61584961 206.35465332 -76.23169922 206.70930664 -76.86621094 207.07470703 C-121.72434865 232.48097521 -189.03762682 227.87389921 -238.2722168 221.0534668 C-258.84541847 218.35653848 -279.82373467 218.81166296 -300.5378418 218.81469727 C-303.3966294 218.81477902 -306.25525842 218.8077346 -309.11401367 218.79418945 C-330.49710038 218.69491611 -350.80023725 219.02697284 -371.5 224.875 C-372.93690509 225.2680489 -374.37417436 225.65976843 -375.81176758 226.05029297 C-383.20183344 228.06788298 -390.57113271 230.15963054 -397.94238281 232.24468994 C-402.52343572 233.54044593 -407.10515987 234.83380369 -411.6875 236.125 C-412.5975177 236.38164429 -413.5075354 236.63828857 -414.44512939 236.90270996 C-426.36219569 240.25489 -438.29479901 243.41437977 -450.375 246.125 C-451.57858154 246.39586426 -452.78216309 246.66672852 -454.0222168 246.94580078 C-466.76533261 249.72332052 -478.99924472 251.39269435 -492.0625 251.375 C-492.75120178 251.37445618 -493.43990356 251.37391235 -494.1494751 251.37335205 C-508.65972721 251.32133801 -522.73689424 249.700694 -537 247 C-538.05783691 246.80164551 -539.11567383 246.60329102 -540.20556641 246.39892578 C-571.18200133 240.37799201 -605.58585946 230.29073345 -631 211 C-631.82886719 210.37867188 -632.65773438 209.75734375 -633.51171875 209.1171875 C-638.74166084 205.06131404 -643.61547374 200.65245923 -648.45776367 196.1484375 C-652.60695167 192.30672028 -656.91915705 188.70510978 -661.33203125 185.16796875 C-662.65267578 184.09482422 -662.65267578 184.09482422 -664 183 C-664.5784668 182.60844727 -665.15693359 182.21689453 -665.75292969 181.81347656 C-671.71757779 177.45287358 -672.97195572 172.36876919 -674.625 165.375 C-674.91076904 164.23998047 -675.19653809 163.10496094 -675.4909668 161.93554688 C-680.06335142 143.23138407 -683.34836531 124.18584951 -685 105 C-685.16628906 103.33130859 -685.16628906 103.33130859 -685.3359375 101.62890625 C-686.92550144 83.04819263 -687.8983716 62.48395473 -685 44 C-684.34 43.34 -683.68 42.68 -683 42 C-682.43152344 42.71285156 -681.86304688 43.42570313 -681.27734375 44.16015625 C-662.47250198 67.48569454 -637.90647428 81.45803618 -608 85 C-602.50983785 85.23617593 -597.03176301 85.18700206 -591.5390625 85.125 C-589.95512538 85.11529646 -588.37118075 85.10675807 -586.78723145 85.0993042 C-583.45220259 85.08258832 -580.11726088 85.0609956 -576.7822876 85.03552246 C-568.15705466 84.97237634 -559.53168849 84.95876892 -550.90625 84.953125 C-550.06493656 84.9525132 -549.22362312 84.9519014 -548.35681534 84.95127106 C-488.13932111 84.93287277 -433.29720589 94.87812932 -377.92585754 118.39559937 C-292.31098976 154.74735447 -219.99158699 155.68108678 -134.04443359 121.26635742 C-90.57627224 103.33028123 -52.54170749 79.39774167 -26 40 C-25.6204718 39.43770691 -25.2409436 38.87541382 -24.84991455 38.29608154 C-21.76501051 33.7248548 -18.69165354 29.14598768 -15.625 24.5625 C-15.1925296 23.91669983 -14.7600592 23.27089966 -14.31448364 22.60552979 C-13.05314428 20.71937734 -11.79496505 18.83118274 -10.5390625 16.94140625 C-10.14136154 16.34328125 -9.74366058 15.74515625 -9.33390808 15.12890625 C-6.43822957 10.74141113 -3.74150505 6.26176405 -1.16943359 1.67553711 C-0.78352051 1.12260986 -0.39760742 0.56968262 0 0 Z " fill="#FFFFFF" transform="translate(955,543)"/>
<path d="M0 0 C4.12967247 1.58877192 7.75659323 3.60156124 11.5 5.9375 C26.21065779 14.89237688 41.32441559 23.35040603 58 28 C58.92675537 28.26562744 59.85351074 28.53125488 60.80834961 28.80493164 C69.76241018 31.1423092 78.38212463 31.5169026 87.5625 31.4375 C88.32356049 31.43412628 89.08462097 31.43075256 89.8687439 31.42727661 C117.87967248 31.24901166 145.4217565 25.73412697 172.18408203 17.60205078 C173.13395996 17.32087402 174.08383789 17.03969727 175.0625 16.75 C175.78706894 16.53477188 176.51163788 16.31954376 177.25816345 16.09779358 C193.89854545 11.30245447 210.89810098 10.439795 228.125 10.5625 C229.11010559 10.56720306 230.09521118 10.57190613 231.11016846 10.57675171 C259.61704707 10.76224226 285.74831095 16.61888138 313.34375 23.234375 C323.41004371 25.64580424 333.49834624 27.91950091 343.625 30.0625 C344.90777832 30.33682861 346.19055664 30.61115723 347.51220703 30.89379883 C389.72155162 39.75160954 429.74172164 34.31651256 466.4765625 10.38671875 C468.0144641 9.29915885 469.51513281 8.15892074 471 7 C474.39118893 8.46972191 476.62114133 10.36371716 479.23046875 12.96484375 C480.02880127 13.75898682 480.82713379 14.55312988 481.6496582 15.37133789 C482.90588989 16.64158813 482.90588989 16.64158813 484.1875 17.9375 C485.04883545 18.80560303 485.9101709 19.67370605 486.79760742 20.56811523 C492.60327507 26.46865935 497.97733306 32.41706305 503 39 C504.12955488 40.42733099 505.26126507 41.85295765 506.39453125 43.27734375 C512.71848479 51.26211673 518.84223322 59.19689429 524 68 C520.48932398 71.59457085 516.84681704 74.95258325 513 78.1875 C512.1486145 78.90413818 512.1486145 78.90413818 511.2800293 79.63525391 C499.64728506 89.35838433 487.37843564 98.25709244 475 107 C474.34209473 107.46470703 473.68418945 107.92941406 473.00634766 108.40820312 C445.33383101 127.79395376 415.99561625 135.39596555 382.91796875 140.625 C381.55697556 140.84021805 381.55697556 140.84021805 380.16848755 141.05978394 C372.32926514 142.29752036 372.32926514 142.29752036 368.43530273 142.90875244 C344.43063727 146.70119255 320.62846345 151.49415287 296.81356907 156.316679 C252.97004317 165.191175 252.97004317 165.191175 235.625 165.8125 C234.20948853 165.86494873 234.20948853 165.86494873 232.76538086 165.91845703 C185.42174153 167.164858 144.65024387 148.54854118 104.28739929 125.95545959 C54.49142815 98.08426042 1.45994696 77.56924675 -54 64 C-52.41853524 59.13395459 -49.63139214 55.51216556 -46.5625 51.5 C-46.02826416 50.79584961 -45.49402832 50.09169922 -44.94360352 49.36621094 C-39.85434849 42.71270651 -34.53708718 36.28418681 -29 30 C-28.175 29.06285156 -27.35 28.12570312 -26.5 27.16015625 C-18.03359536 17.75160597 -8.9952112 8.89861633 0 0 Z " fill="#FFFFFF" transform="translate(384,358)"/>
<path d="M0 0 C1.17897154 3.53691463 0.75366485 4.62834481 -0.30078125 8.13671875 C-0.61313721 9.17658936 -0.92549316 10.21645996 -1.24731445 11.2878418 C-1.7745813 12.97067261 -1.7745813 12.97067261 -2.3125 14.6875 C-2.67496826 15.84999268 -3.03743652 17.01248535 -3.41088867 18.21020508 C-15.53435561 56.13298537 -34.58683089 91.60594102 -59 123 C-59.98520243 124.34705147 -60.96951945 125.6947508 -61.953125 127.04296875 C-72.80641924 141.57506365 -85.46055996 147.51781186 -103.44992065 150.588974 C-112.26748024 151.80780867 -120.90741181 152.32020996 -129.8203125 152.37890625 C-131.20091239 152.39480768 -132.58150242 152.4115849 -133.96208191 152.4291687 C-136.85991638 152.46461399 -139.75773442 152.49486833 -142.65567017 152.52072144 C-147.17578209 152.5614669 -151.69565495 152.61618282 -156.21557617 152.67407227 C-156.96455768 152.68362536 -157.71353918 152.69317846 -158.48521709 152.70302105 C-159.98934727 152.72221936 -161.493477 152.74145258 -162.99760628 152.76072121 C-165.22800428 152.78893251 -167.45841264 152.81610015 -169.68882751 152.84294128 C-211.20114201 153.34526507 -247.6181687 154.29265354 -286.09375 171.09375 C-286.72263123 171.36784195 -287.35151245 171.6419339 -287.99945068 171.92433167 C-291.08435771 173.26955943 -294.16501775 174.62238791 -297.23925781 175.99194336 C-316.29225275 184.38221707 -335.52006012 191.11642263 -355.76391602 196.01342773 C-359.06909495 196.81409761 -362.36760888 197.6387174 -365.66601562 198.46679688 C-426.38961334 213.53255238 -484.72836695 213.70913282 -540.66699219 183.24707031 C-543.92264501 181.50681554 -547.23618595 179.91351709 -550.5625 178.3125 C-569.35871268 168.97000376 -584.56921626 154.91475665 -598 139 C-598.79535156 138.09378906 -599.59070313 137.18757812 -600.41015625 136.25390625 C-617.77228359 116.34818103 -656 71.9667849 -656 44 C-652.06964969 45.71892471 -648.83248551 48.30226561 -645.4375 50.875 C-608.04027896 78.62355379 -562.21750744 99.63302753 -515 101 C-514.36368652 101.02578125 -513.72737305 101.0515625 -513.07177734 101.078125 C-465.79852951 102.84411138 -416.92592331 89.87741051 -371.6559906 77.77545166 C-345.69915305 70.83894934 -321.48868217 66.77412787 -294.5625 66.7578125 C-293.63637909 66.75671604 -292.71025818 66.75561958 -291.756073 66.7544899 C-270.4042006 66.7648927 -249.18681798 68.10744497 -227.90063477 69.66479492 C-223.02308257 70.01826453 -218.14429811 70.3538294 -213.265625 70.69140625 C-199.79372247 71.62838681 -186.32290651 72.58043386 -172.85913086 73.62841797 C-160.75098247 74.56966405 -148.71096487 75.39209481 -136.5625 75.375 C-135.49502029 75.37368576 -135.49502029 75.37368576 -134.40597534 75.37234497 C-122.58245065 75.32492815 -111.36233804 74.45463002 -100 71 C-98.84951172 70.65388672 -98.84951172 70.65388672 -97.67578125 70.30078125 C-69.44514072 61.48162247 -46.57986791 44.73847199 -25 25 C-23.98502623 24.08911758 -22.96937374 23.178991 -21.953125 22.26953125 C-16.85015402 17.6807455 -11.95546931 13.06041797 -7.53515625 7.79296875 C-5.17470074 5.03610087 -2.59676844 2.53343262 0 0 Z " fill="#FFFFFF" transform="translate(952,707)"/>
<path d="M0 0 C160.14962716 0 160.14962716 0 195.3125 33.9375 C212.51355413 51.85069968 221.30699054 75.78755385 225 100 C225.1544458 101.01078613 225.1544458 101.01078613 225.31201172 102.04199219 C228.62094127 124.9274481 228.71755591 150.16285461 225 173 C224.87641113 173.79438477 224.75282227 174.58876953 224.62548828 175.40722656 C219.96642288 204.40073173 207.74566738 232.17876662 183.5625 249.9375 C131.94861528 286.46945022 55.97016142 274 0 274 C0 183.58 0 93.16 0 0 Z M48 48 C48 106.74 48 165.48 48 226 C103.53545454 228.87495385 103.53545454 228.87495385 154 209 C154.82886719 208.3915625 155.65773438 207.783125 156.51171875 207.15625 C170.86903053 194.71474905 175.99214045 173.81751911 177.82128906 155.64575195 C178.22512588 149.66709137 178.244863 143.67767262 178.25 137.6875 C178.25067474 136.97957306 178.25134949 136.27164612 178.25204468 135.54226685 C178.21604648 111.69564479 175.33698481 86.21943109 158.1796875 68.05859375 C129.85881323 41.31110139 81.81061689 48 48 48 Z " fill="#FFFFFF" transform="translate(2584,517)"/>
<path d="M0 0 C0.89895996 0.31018066 1.79791992 0.62036133 2.72412109 0.93994141 C38.99456195 13.66723843 71.6581618 32.60336082 102 56 C102.98871094 56.76183594 103.97742188 57.52367187 104.99609375 58.30859375 C107.00341923 59.8649756 109.00583043 61.42682179 111 63 C109.51361451 67.61841205 105.67995869 69.4506822 101.75 71.8125 C101.03271729 72.24973389 100.31543457 72.68696777 99.57641602 73.13745117 C74.38554962 88.29087582 47.94846495 95.91986421 18.8828125 90 C17.80996506 89.78315552 16.73711761 89.56631104 15.63175964 89.34289551 C6.87961568 87.51259998 -1.76001293 85.31023132 -10.38671875 82.96875 C-11.04855352 82.78912216 -11.7103883 82.60949432 -12.39227867 82.42442322 C-18.52206098 80.75660015 -24.64616331 79.06837441 -30.76635742 77.36572266 C-61.88636538 68.72327515 -93.0236322 63.03418483 -125.4375 62.6875 C-126.93446411 62.66079224 -126.93446411 62.66079224 -128.46166992 62.63354492 C-150.32445374 62.65595061 -171.39625752 67.66242233 -192.45617676 72.98455811 C-198.5390606 74.51863067 -204.62897775 76.02479735 -210.71875 77.53125 C-211.99500244 77.84715088 -213.27125488 78.16305176 -214.58618164 78.48852539 C-252.03753228 87.68177994 -287.80206382 86.66080211 -322 67 C-325.44032721 64.79519538 -328.76149424 62.49115828 -332 60 C-330.69011312 57.00540321 -329.4538008 55.27840488 -326.83203125 53.3359375 C-326.19434814 52.85898437 -325.55666504 52.38203125 -324.8996582 51.890625 C-324.210896 51.39046875 -323.52213379 50.8903125 -322.8125 50.375 C-321.73391724 49.58222656 -321.73391724 49.58222656 -320.63354492 48.7734375 C-238.66181216 -11.03187361 -135.38281275 -31.88849126 0 0 Z " fill="#FFFFFF" transform="translate(731,288)"/>
<path d="M0 0 C14.85 0 29.7 0 45 0 C45 92.4 45 184.8 45 280 C31.47 280 17.94 280 4 280 C4 278.35 4 276.7 4 275 C3.36578125 275.31453125 2.7315625 275.6290625 2.078125 275.953125 C-22.14960091 287.06307666 -56.71452021 288.64509141 -82 280 C-83.10214844 279.62617187 -84.20429687 279.25234375 -85.33984375 278.8671875 C-103.20168718 272.0648209 -116.70723375 259.48515415 -124.85498047 242.18457031 C-133.4598807 222.82481246 -135.22213232 201.87170128 -135.1875 180.9375 C-135.18656342 180.20600739 -135.18562683 179.47451477 -135.18466187 178.72085571 C-135.10158103 148.77041994 -130.76098031 118.26158822 -109.8125 95.25 C-89.30738707 76.38342349 -62.9078414 74.09585125 -36.27148438 74.84326172 C-24.00333245 75.43103437 -11.0818751 77.45906245 0 83 C0 55.61 0 28.22 0 0 Z M-76.11328125 126.75 C-88.73265504 139.72066257 -89.53419443 160.69356438 -89.39111328 177.78442383 C-89.37497615 180.06587205 -89.39111002 182.34555646 -89.41015625 184.62695312 C-89.43311362 200.84421562 -87.87230827 219.33040318 -76.35546875 231.77734375 C-65.54097322 242.1953812 -51.5221378 242.38508104 -37.359375 242.21484375 C-27.48455435 241.93474401 -16.86376582 240.45605466 -9 234 C0.31134065 224.01184384 0.46281151 210.5083179 0.3984375 197.59375 C0.40046555 196.13749039 0.40338302 194.68123178 0.40713501 193.22497559 C0.41152408 190.19269006 0.40523906 187.16067206 0.39111328 184.12841797 C0.37402319 180.27572064 0.38388296 176.42365067 0.40183067 172.57097626 C0.41276193 169.56975731 0.40917984 166.56868282 0.4014473 163.56745911 C0.39947097 162.14834007 0.40181229 160.72920715 0.40888596 159.31010437 C0.45646471 147.0880466 -0.02976216 135.14028974 -9 126 C-23.99181269 111.31571168 -60.77249916 114.0463579 -76.11328125 126.75 Z " fill="#FFFFFF" transform="translate(2072,510)"/>
<path d="M0 0 C17.49 0 34.98 0 53 0 C56.21263906 6.42527813 59.26156256 12.73503212 62.01171875 19.34375 C62.56027779 20.6494545 62.56027779 20.6494545 63.11991882 21.98153687 C63.90409559 23.84873043 64.68681999 25.71653452 65.46820068 27.5848999 C67.57185496 32.61431532 69.68669851 37.63902375 71.80078125 42.6640625 C72.23322144 43.69258331 72.66566162 44.72110413 73.11120605 45.78079224 C77.48235341 56.16710705 81.92393216 66.52274486 86.375 76.875 C93.68152675 93.87608003 100.88473285 110.91800038 108 128 C113.38272856 114.37559261 118.48654685 100.65497259 123.53399658 86.90325928 C124.90170563 83.17724658 126.27152203 79.45201252 127.64208984 75.72705078 C129.51526917 70.63564472 131.38780844 65.54400397 133.25976562 60.45214844 C137.00936202 50.25365599 140.76243655 40.05645275 144.52349854 29.86218262 C145.25221247 27.88596953 145.98021054 25.9094923 146.7074585 23.93273926 C147.71213562 21.20192859 148.71907694 18.47196305 149.7265625 15.7421875 C150.01625916 14.9530899 150.30595581 14.16399231 150.60443115 13.35098267 C150.87757141 12.61238007 151.15071167 11.87377747 151.43212891 11.11279297 C151.66412994 10.48307587 151.89613098 9.85335876 152.13516235 9.20455933 C153.35042651 6.10672711 154.68916398 3.05861738 156 0 C173.16 0 190.32 0 208 0 C206.68607599 5.91265805 205.39825859 11.10379861 203.21875 16.640625 C202.93798615 17.37023941 202.65722229 18.09985382 202.36795044 18.85157776 C201.74840091 20.46007767 201.12605909 22.06750418 200.50128174 23.67398071 C198.69231925 28.32793782 196.90681975 32.99092738 195.1171875 37.65234375 C194.71873627 38.68852341 194.32028503 39.72470306 193.90975952 40.7922821 C188.69182708 54.37620774 183.57549835 67.99851215 178.45090866 81.61784363 C177.06234382 85.30762534 175.67286392 88.99706242 174.28344727 92.68652344 C172.29268744 97.9730185 170.30218283 103.25960952 168.31203556 108.54633522 C164.87446571 117.67806367 161.43555633 126.80928679 157.99559593 135.94011497 C157.14715658 138.19224996 156.29882833 140.44442676 155.45051575 142.6966095 C152.68725366 150.0322462 149.9219057 157.36708661 147.15258789 164.70043945 C146.08849459 167.5189638 145.02463317 170.33757557 143.9609375 173.15625 C143.70308661 173.83944494 143.44523571 174.52263988 143.17957115 175.2265377 C140.14674827 183.26512133 137.13588687 191.31110396 134.16423035 199.37255859 C132.64857263 203.48332376 131.12366509 207.59062912 129.59817505 211.69775391 C128.6176145 214.35087563 127.65203954 217.00908023 126.68725586 219.66796875 C123.43905227 228.48303929 119.71931162 236.89367582 115.37890625 245.23046875 C114.93076065 246.0915625 114.48261505 246.95265625 114.02088928 247.83984375 C103.17197391 268.12474507 86.99125901 282.21227456 64.9375 289.03515625 C52.02576322 292.43624886 38.69567776 292.5583814 25.5 291.25 C24.83105713 291.18844727 24.16211426 291.12689453 23.47290039 291.06347656 C14.76673689 290.10111656 6.6767751 287.92817224 -2 286 C-2 269.5 -2 253 -2 236 C9.385 239.465 9.385 239.465 21 243 C34.5728718 245.67007314 48.17171576 246.55814603 60.1484375 238.56640625 C69.43701597 231.14622 74.39037649 219.89658441 78.75 209.125 C79.23726562 208.04347656 79.72453125 206.96195313 80.2265625 205.84765625 C82.62597814 199.89171033 83.55643743 195.94359156 81.265625 189.83203125 C80.20521117 187.5414549 79.11371016 185.26514176 78 183 C77.05963863 180.86204607 76.14727542 178.71324172 75.23434448 176.56344604 C73.88168861 173.38974759 72.49200396 170.23273918 71.10394287 167.07440186 C69.96657772 164.48645123 68.83270269 161.89699524 67.69970703 159.30712891 C66.54337103 156.66399694 65.38685451 154.02094612 64.22927856 151.37835693 C61.09291095 144.21842408 57.97844039 137.04927446 54.875 129.875 C53.83213606 127.46610038 52.78918535 125.05723853 51.74609375 122.6484375 C51.4665535 122.00283371 51.18701324 121.35722992 50.89900208 120.69206238 C46.74720565 111.10493748 42.58782659 101.52109951 38.42895508 91.93704224 C37.43639157 89.64969028 36.44387837 87.3623165 35.45141602 85.07492065 C30.05586286 72.6396839 24.6564935 60.20612897 19.24609375 47.77734375 C18.78897507 46.72700958 18.33185638 45.67667542 17.86088562 44.59451294 C15.70259967 39.63542175 13.54345554 34.67670828 11.38256836 29.71875 C9.55854283 25.53146712 7.73992669 21.34189623 5.92858887 17.14910889 C5.33292376 15.77051258 4.73610228 14.39241501 4.13781738 13.01495361 C3.40130338 11.31580487 2.67293961 9.61312956 1.9453125 7.91015625 C1.56133301 7.01562744 1.17735352 6.12109863 0.78173828 5.19946289 C0 3 0 3 0 0 Z " fill="#FFFFFF" transform="translate(3004,587)"/>
<path d="M0 0 C15.18 0 30.36 0 46 0 C46 27.39 46 54.78 46 83 C50.95 81.35 55.9 79.7 61 78 C85.84845717 71.66353529 115.98236185 72.30967255 138.92578125 84.5625 C153.67300713 93.37412044 162.43825169 106.19590529 167.2109375 122.4765625 C169.46267091 132.5313325 170.2847071 142.09660311 170.22705078 152.39746094 C170.22648514 153.79822786 170.22680621 155.19899538 170.22793579 156.59976196 C170.22850433 160.3634475 170.21683187 164.12700282 170.20278788 167.89065838 C170.19019635 171.8384146 170.18910343 175.78617455 170.18673706 179.73394775 C170.18054685 187.19217929 170.16416968 194.65035146 170.14403808 202.10855699 C170.12160208 210.60685141 170.11066638 219.10514883 170.10064721 227.60346556 C170.07980097 245.06901743 170.04315587 262.53448802 170 280 C155.15 280 140.3 280 125 280 C124.98541748 275.94299805 124.97083496 271.88599609 124.95581055 267.70605469 C124.9054001 254.2790091 124.83894194 240.85208277 124.76428509 227.42515182 C124.71942472 219.2870285 124.67998787 211.14894799 124.65356445 203.01074219 C124.63050498 195.91292771 124.59701911 188.81524982 124.55129844 181.71754384 C124.52747274 177.96347774 124.50867454 174.20954602 124.50238609 170.45540619 C124.49628652 166.91274325 124.47611413 163.37042366 124.44572449 159.82788849 C124.43291136 157.92655956 124.43450079 156.0251501 124.4367218 154.1237793 C124.33309748 144.52991473 123.72065114 133.44720802 117 126 C108.51334428 119.25225815 99.66708418 118.67115673 89.1875 118.75 C87.66286133 118.73839844 87.66286133 118.73839844 86.10742188 118.7265625 C74.81060055 118.75536255 64.13814229 119.83838035 55.25 127.3125 C47.08023283 137.070833 46.70296816 146.99519793 46.68115234 159.32250977 C46.66608391 161.28494881 46.66608391 161.28494881 46.65071106 163.28703308 C46.62358296 166.84835781 46.60831315 170.40964337 46.59528303 173.97104383 C46.57957662 177.70265993 46.55281064 181.43419693 46.5272522 185.16575623 C46.48059666 192.22028724 46.44378887 199.27483337 46.41057932 206.3294391 C46.37226407 214.36581969 46.32287877 222.40212055 46.27259517 230.43843377 C46.16947216 246.95890386 46.08160938 263.47940749 46 280 C30.82 280 15.64 280 0 280 C0 187.6 0 95.2 0 0 Z " fill="#FFFFFF" transform="translate(1332,510)"/>
<path d="M0 0 C0.82242188 0.41765625 1.64484375 0.8353125 2.4921875 1.265625 C19.63793035 10.55957907 28.90822549 26.89544767 34.40673828 44.97021484 C41.18358263 68.15650452 40 91.95630407 40 116 C-4.88 116 -49.76 116 -96 116 C-92.84491803 131.68428519 -92.84491803 131.68428519 -86 145 C-85.4225 145.928125 -84.845 146.85625 -84.25 147.8125 C-71.45270412 160.25431544 -52.58278502 161.957309 -35.625 162.25 C-14.6212444 161.87335037 5.16971225 157.503585 25.04882812 150.87988281 C30.71564964 149 30.71564964 149 34 149 C34 163.19 34 177.38 34 192 C-4.77084603 207.50833841 -55.05121209 210.88779095 -94.12109375 194.28515625 C-103.63886772 190.00260628 -110.79089145 184.48595604 -118 177 C-118.66386719 176.35546875 -119.32773438 175.7109375 -120.01171875 175.046875 C-137.61458246 156.85065634 -141.18510904 128.09021405 -142 104 C-142.04125 103.00742187 -142.0825 102.01484375 -142.125 100.9921875 C-142.78233132 70.17978207 -138.38913877 36.70824734 -116.5 13.4140625 C-89.26409352 -12.88560969 -33.06240751 -18.5498656 0 0 Z M-84.2578125 43.01171875 C-92.32404314 52.21734968 -96 63.85917864 -96 76 C-65.97 76 -35.94 76 -5 76 C-5.78231702 65.58508666 -5.78231702 65.58508666 -8.1875 55.75 C-8.40599609 55.0703418 -8.62449219 54.39068359 -8.84960938 53.69042969 C-10.69234455 48.28420803 -12.99720673 44.05673927 -17 40 C-18.0828125 38.88625 -18.0828125 38.88625 -19.1875 37.75 C-26.16653668 33.40748829 -33.83657811 31.34014258 -42 31 C-42.6703125 30.96003906 -43.340625 30.92007813 -44.03125 30.87890625 C-58.24663244 30.42804524 -73.69279575 32.77548883 -84.2578125 43.01171875 Z " fill="#FFFFFF" transform="translate(4135,592)"/>
<path d="M0 0 C0.9796875 0.39703125 1.959375 0.7940625 2.96875 1.203125 C17.8653941 7.8835788 27.72322119 19.55049184 33.8125 34.5625 C38.65163295 48.00101018 39.15486799 61.56445371 39.11352539 75.7331543 C39.11324261 77.07466123 39.11340302 78.41616832 39.1139679 79.75767517 C39.11425234 83.36436066 39.10841319 86.97101222 39.10139394 90.57768989 C39.09510114 94.35996305 39.09455194 98.14223718 39.09336853 101.92451477 C39.09027257 109.07109806 39.08208279 116.21766587 39.07201904 123.36424237 C39.06080374 131.50702479 39.05533386 139.64980799 39.05032361 147.79259622 C39.03989855 164.52840794 39.02157488 181.26419837 39 198 C25.14 198 11.28 198 -3 198 C-3.33 197.01 -3.66 196.02 -4 195 C-5.52367188 195.50660156 -5.52367188 195.50660156 -7.078125 196.0234375 C-8.46860549 196.47440415 -9.859239 196.92489917 -11.25 197.375 C-11.91257812 197.59671875 -12.57515625 197.8184375 -13.2578125 198.046875 C-25.37627948 201.93393045 -37.39239953 202.40501999 -50 202.375 C-50.81781952 202.37478851 -51.63563904 202.37457703 -52.47824097 202.37435913 C-75.5518465 202.31478994 -96.67722129 199.23398508 -114.25390625 182.90625 C-127.15143625 169.39688272 -129.51592245 153.19868524 -129.41967773 135.31298828 C-129.06047609 119.9169821 -124.98737392 106.38422927 -114.4375 94.75 C-96.34537066 78.01478036 -71.98294782 75.59990974 -48.5 75.6875 C-47.61924805 75.68766113 -46.73849609 75.68782227 -45.83105469 75.68798828 C-32.68458201 75.70473843 -19.91418621 76.34119696 -7 79 C-6.16674857 61.42991223 -6.16674857 61.42991223 -11.6875 45.0625 C-23.88900779 34.18007414 -42.71693943 35.28915997 -58 36 C-75.9363858 37.3518412 -93.0214751 42.38953201 -109.91796875 48.3359375 C-112 49 -112 49 -114 49 C-114 34.15 -114 19.3 -114 4 C-100.04391683 -0.25099085 -86.49379113 -4.24939348 -72 -6 C-71.26668457 -6.0928125 -70.53336914 -6.185625 -69.77783203 -6.28125 C-47.19645549 -8.86778526 -21.25733205 -8.91830598 0 0 Z M-81 124.5625 C-84.47500509 128.79766245 -84.24526863 133.00595281 -84.3125 138.25 C-84.34150391 138.98863281 -84.37050781 139.72726562 -84.40039062 140.48828125 C-84.4652124 146.14273478 -83.33646042 149.40016386 -80 154 C-77.84879326 155.77910236 -77.84879326 155.77910236 -75.375 156.8125 C-74.59898437 157.19019531 -73.82296875 157.56789063 -73.0234375 157.95703125 C-64.86420736 160.7716494 -56.83211864 161.35926154 -48.25 161.3125 C-46.6721875 161.30621582 -46.6721875 161.30621582 -45.0625 161.29980469 C-33.80857321 161.13695538 -21.02778979 160.31870786 -12.2578125 152.43359375 C-6.23972012 145.99797821 -5.69752308 139.03360974 -5.875 130.5625 C-5.88402344 129.73556641 -5.89304687 128.90863281 -5.90234375 128.05664062 C-5.92568488 126.03763292 -5.96154712 124.01877644 -6 122 C-26.14445095 114.68291947 -63.13203951 109.30028375 -81 124.5625 Z " fill="#FFFFFF" transform="translate(2954,592)"/>
<path d="M0 0 C14.10910707 13.24663814 19.46789475 30.85354702 20.8125 49.75 C20.94527505 54.32104488 20.93922926 58.88872602 20.92602539 63.46142578 C20.92574271 64.81263731 20.92590283 66.16384899 20.9264679 67.51506042 C20.92675271 71.15279572 20.92090729 74.79049748 20.91389394 78.42822504 C20.90760758 82.24120059 20.90705244 86.05417705 20.90586853 89.86715698 C20.90277071 97.07398064 20.89457834 104.28078899 20.88451904 111.48760593 C20.87330962 119.69807853 20.86783532 127.90855188 20.86282361 136.11903024 C20.85239431 152.99603052 20.83406825 169.87300972 20.8125 186.75 C6.9525 186.75 -6.9075 186.75 -21.1875 186.75 C-21.5175 185.76 -21.8475 184.77 -22.1875 183.75 C-23.71117188 184.25660156 -23.71117188 184.25660156 -25.265625 184.7734375 C-26.65610549 185.22440415 -28.046739 185.67489917 -29.4375 186.125 C-30.10007813 186.34671875 -30.76265625 186.5684375 -31.4453125 186.796875 C-42.86725266 190.46051618 -54.12656803 191.09822764 -66.02197266 191.06567383 C-68.42006353 191.06252291 -70.81690506 191.08602719 -73.21484375 191.11132812 C-94.9834488 191.20206618 -116.07984292 186.92207074 -132.42578125 171.66015625 C-145.22902884 158.32645396 -147.66927836 142.26295845 -147.5390625 124.56445312 C-147.16814831 108.15150007 -142.69980701 94.34908978 -131.07421875 82.2890625 C-113.74801405 67.04950491 -90.96633625 64.37934443 -68.78833008 64.43432617 C-66.15337906 64.43746618 -63.51957723 64.4140137 -60.88476562 64.38867188 C-48.74172243 64.34581457 -37.13738768 65.63100952 -25.1875 67.75 C-25.17518845 67.10159149 -25.16287689 66.45318298 -25.15019226 65.78512573 C-25.13374161 64.91872467 -25.11729095 64.05232361 -25.1003418 63.15966797 C-25.08369476 62.25585388 -25.06704773 61.35203979 -25.04989624 60.4208374 C-25.01335871 58.55659629 -24.96787473 56.69252467 -24.91723633 54.82861328 C-24.84894655 47.2844286 -26.01914046 40.44424218 -29.875 33.875 C-41.30587531 23.37095242 -58.84522844 24.21866323 -73.35302734 24.61816406 C-92.28239468 25.49859975 -110.33080679 30.83047707 -128.10546875 37.0859375 C-130.1875 37.75 -130.1875 37.75 -132.1875 37.75 C-132.1875 22.9 -132.1875 8.05 -132.1875 -7.25 C-91.73722441 -19.57106096 -35.33531442 -30.13582371 0 0 Z M-99.1875 113.3125 C-102.67476743 117.56260718 -102.43293734 121.80031692 -102.5 127.0625 C-102.52900391 127.80951172 -102.55800781 128.55652344 -102.58789062 129.32617188 C-102.648414 134.62895077 -101.64312265 137.51654347 -98.1875 141.75 C-90.00523252 149.93226748 -77.60019004 149.97044235 -66.75 150 C-53.47186235 149.99498863 -39.91204292 149.86742266 -29.671875 140.33984375 C-24.03196211 134.26235141 -23.89887835 127.12228711 -24.0625 119.3125 C-24.07152344 118.48556641 -24.08054688 117.65863281 -24.08984375 116.80664062 C-24.11318488 114.78763292 -24.14904712 112.76877644 -24.1875 110.75 C-44.33195095 103.43291947 -81.31953951 98.05028375 -99.1875 113.3125 Z " fill="#FFFFFF" transform="translate(4698.1875,603.25)"/>
<path d="M0 0 C14.67122375 13.65435786 20.19442146 31.3098927 21.20370865 50.9682579 C21.2666669 54.61302255 21.27131125 58.25270553 21.25048828 61.89794922 C21.24992225 63.27930696 21.25024445 64.66066531 21.25137329 66.04202271 C21.25194034 69.7436095 21.24029271 73.44506311 21.22622538 77.14661932 C21.21360836 81.03297062 21.21253896 84.91932595 21.21017456 88.80569458 C21.2039917 96.14344578 21.18762475 103.48113643 21.16747558 110.81886113 C21.14501636 119.18177507 21.1340981 127.54469211 21.12408471 135.90762877 C21.10325517 153.09080383 21.06661955 170.27389562 21.0234375 187.45703125 C7.4934375 187.45703125 -6.0365625 187.45703125 -19.9765625 187.45703125 C-19.9765625 186.13703125 -19.9765625 184.81703125 -19.9765625 183.45703125 C-20.8015625 183.78316406 -21.6265625 184.10929688 -22.4765625 184.4453125 C-23.6315625 184.88230469 -24.7865625 185.31929687 -25.9765625 185.76953125 C-27.6471875 186.41341797 -27.6471875 186.41341797 -29.3515625 187.0703125 C-41.39711278 190.99052943 -53.52979586 191.94972534 -66.11279297 191.84814453 C-68.47552161 191.83203835 -70.83654075 191.84811392 -73.19921875 191.8671875 C-94.92739962 191.8978009 -116.40840747 187.0932492 -132.8046875 171.91796875 C-145.81130276 157.18025722 -147.81964025 138.99730116 -147.15576172 120.11474609 C-146.15804498 105.31754665 -139.97019923 91.51706625 -128.9765625 81.45703125 C-111.30550972 67.95188151 -89.72043386 64.7250927 -68.04931641 64.99047852 C-65.47623098 65.01953499 -62.90521296 65.01099339 -60.33203125 64.99804688 C-48.32514261 65.01555336 -36.7940023 66.38455801 -24.9765625 68.45703125 C-23.5682182 50.14010322 -23.5682182 50.14010322 -30.33203125 33.8046875 C-41.32823722 23.63393399 -59.30304914 24.81893716 -73.23583984 25.31347656 C-88.7004509 26.12348826 -103.14747629 29.85187505 -117.85791016 34.52148438 C-122.53752004 35.92529407 -127.26307851 37.17153562 -131.9765625 38.45703125 C-131.9765625 23.60703125 -131.9765625 8.75703125 -131.9765625 -6.54296875 C-92.37789882 -18.60463067 -34.80488264 -29.73488005 0 0 Z M-97.58984375 112.9453125 C-101.79938578 117.72403204 -102.15313663 121.58340182 -102.2265625 127.76953125 C-102.25234375 129.06503906 -102.278125 130.36054687 -102.3046875 131.6953125 C-101.83140568 137.1211505 -100.12568305 140.28055069 -96.3515625 144.14453125 C-84.3805481 153.38270861 -63.5693561 151.78392582 -49.41796875 149.9609375 C-40.76110426 148.41787102 -34.08284946 146.08519682 -28.1015625 139.51953125 C-23.73249769 133.22293784 -23.71434947 127.48098026 -23.8515625 120.08203125 C-23.86058594 119.15519531 -23.86960937 118.22835937 -23.87890625 117.2734375 C-23.90233313 115.00103048 -23.93513502 112.72916945 -23.9765625 110.45703125 C-39.34902527 107.04540609 -39.34902527 107.04540609 -54.9765625 105.45703125 C-56.18183594 105.41707031 -57.38710937 105.37710938 -58.62890625 105.3359375 C-79.44674119 104.60568689 -79.44674119 104.60568689 -97.58984375 112.9453125 Z " fill="#FFFFFF" transform="translate(1676.9765625,602.54296875)"/>
<path d="M0 0 C14.67122375 13.65435786 20.19442146 31.3098927 21.20370865 50.9682579 C21.2666669 54.61302255 21.27131125 58.25270553 21.25048828 61.89794922 C21.24992225 63.27930696 21.25024445 64.66066531 21.25137329 66.04202271 C21.25194034 69.7436095 21.24029271 73.44506311 21.22622538 77.14661932 C21.21360836 81.03297062 21.21253896 84.91932595 21.21017456 88.80569458 C21.2039917 96.14344578 21.18762475 103.48113643 21.16747558 110.81886113 C21.14501636 119.18177507 21.1340981 127.54469211 21.12408471 135.90762877 C21.10325517 153.09080383 21.06661955 170.27389562 21.0234375 187.45703125 C7.4934375 187.45703125 -6.0365625 187.45703125 -19.9765625 187.45703125 C-19.9765625 186.13703125 -19.9765625 184.81703125 -19.9765625 183.45703125 C-20.8015625 183.78316406 -21.6265625 184.10929688 -22.4765625 184.4453125 C-23.6315625 184.88230469 -24.7865625 185.31929687 -25.9765625 185.76953125 C-27.6471875 186.41341797 -27.6471875 186.41341797 -29.3515625 187.0703125 C-41.39711278 190.99052943 -53.52979586 191.94972534 -66.11279297 191.84814453 C-68.47552161 191.83203835 -70.83654075 191.84811392 -73.19921875 191.8671875 C-94.9181661 191.89778789 -116.42606156 187.10204364 -132.8046875 171.9140625 C-139.68226007 164.13349929 -144.05425608 154.62460242 -145.9765625 144.45703125 C-146.15832031 143.55984375 -146.34007813 142.66265625 -146.52734375 141.73828125 C-149.14491992 122.61859443 -146.34823573 103.81117027 -135.12890625 87.82421875 C-122.97851452 73.10403164 -104.14112585 67.96450589 -85.9765625 65.45703125 C-80.00622657 64.93055636 -74.03843954 64.91713535 -68.04931641 64.99047852 C-65.47623098 65.01953499 -62.90521296 65.01099339 -60.33203125 64.99804688 C-48.32514261 65.01555336 -36.7940023 66.38455801 -24.9765625 68.45703125 C-23.5682182 50.14010322 -23.5682182 50.14010322 -30.33203125 33.8046875 C-41.32823722 23.63393399 -59.30304914 24.81893716 -73.23583984 25.31347656 C-88.7004509 26.12348826 -103.14747629 29.85187505 -117.85791016 34.52148438 C-122.53752004 35.92529407 -127.26307851 37.17153562 -131.9765625 38.45703125 C-131.9765625 23.60703125 -131.9765625 8.75703125 -131.9765625 -6.54296875 C-92.37789882 -18.60463067 -34.80488264 -29.73488005 0 0 Z M-97.58984375 112.9453125 C-101.79938578 117.72403204 -102.15313663 121.58340182 -102.2265625 127.76953125 C-102.25234375 129.06503906 -102.278125 130.36054687 -102.3046875 131.6953125 C-101.83140568 137.1211505 -100.12568305 140.28055069 -96.3515625 144.14453125 C-84.3805481 153.38270861 -63.5693561 151.78392582 -49.41796875 149.9609375 C-40.76110426 148.41787102 -34.08284946 146.08519682 -28.1015625 139.51953125 C-23.73249769 133.22293784 -23.71434947 127.48098026 -23.8515625 120.08203125 C-23.86058594 119.15519531 -23.86960937 118.22835937 -23.87890625 117.2734375 C-23.90233313 115.00103048 -23.93513502 112.72916945 -23.9765625 110.45703125 C-39.34902527 107.04540609 -39.34902527 107.04540609 -54.9765625 105.45703125 C-56.18183594 105.41707031 -57.38710937 105.37710938 -58.62890625 105.3359375 C-79.44674119 104.60568689 -79.44674119 104.60568689 -97.58984375 112.9453125 Z " fill="#FFFFFF" transform="translate(2429.9765625,602.54296875)"/>
<path d="M0 0 C12.75866531 12.15110982 19.6749632 29.58936396 20.21498299 47.10633659 C20.24811019 50.77430598 20.2485772 54.44102216 20.23852539 58.10913086 C20.23824301 59.51901243 20.23840225 60.92889415 20.2389679 62.33877563 C20.23925387 66.15023603 20.23338949 69.96166473 20.22639394 73.77311778 C20.22012709 77.76228215 20.21955397 81.75144731 20.21836853 85.74061584 C20.21526502 93.28753234 20.20706488 100.83443428 20.19701904 108.38134438 C20.18582742 116.97626257 20.18033978 125.57118148 20.17532361 134.16610515 C20.16488142 151.83991335 20.14654816 169.51370161 20.125 187.1875 C6.595 187.1875 -6.935 187.1875 -20.875 187.1875 C-20.875 185.8675 -20.875 184.5475 -20.875 183.1875 C-21.60976562 183.55101562 -21.60976562 183.55101562 -22.359375 183.921875 C-48.19534573 195.50351705 -83.87190624 194.7706588 -110.41796875 186.01953125 C-116.80805903 183.56668914 -122.37950572 180.24099475 -127.875 176.1875 C-129.2053125 175.259375 -129.2053125 175.259375 -130.5625 174.3125 C-142.44853617 163.3901965 -147.27295804 147.59543787 -148.03515625 131.88671875 C-148.44155465 114.87099456 -145.28406111 99.17440999 -133.875 86.1875 C-133.08996094 85.26130859 -133.08996094 85.26130859 -132.2890625 84.31640625 C-120.71624302 71.6427576 -101.45299545 66.00378032 -84.71728516 65.06668091 C-79.66219205 64.88383627 -74.60922843 64.85934537 -69.55126953 64.87182617 C-66.90744773 64.87496152 -64.2647761 64.8515398 -61.62109375 64.82617188 C-32.80594722 64.72202639 -32.80594722 64.72202639 -23.875 69.1875 C-24.09720765 65.20627958 -24.35784141 61.22843671 -24.625 57.25 C-24.686875 56.13302734 -24.74875 55.01605469 -24.8125 53.86523438 C-25.37561597 45.86429501 -26.43884921 37.94445997 -32.6875 32.3125 C-50.51676365 20.42632424 -76.93708668 24.33875159 -96.875 28.1875 C-106.12244851 30.12648114 -115.06580682 33.15026498 -123.9753418 36.25708008 C-127.05941727 37.32212648 -129.5869967 38.1875 -132.875 38.1875 C-132.875 23.3375 -132.875 8.4875 -132.875 -6.8125 C-92.31508985 -18.55935922 -35.8286682 -29.91754112 0 0 Z M-98.55859375 112.640625 C-103.31644025 117.97803921 -103.16927207 123.30276267 -103.0859375 130.14453125 C-102.6788658 136.01691746 -101.26959505 139.69329102 -97.25 144 C-84.9039003 153.09873849 -63.94895261 151.57841102 -49.54296875 149.7265625 C-40.85148868 148.0975089 -33.46577395 145.047582 -27.375 138.5 C-23.43437681 129.79779045 -23.60622382 120.57973437 -23.875 111.1875 C-42.54651501 104.34127783 -81.79498371 98.17180149 -98.55859375 112.640625 Z " fill="#FFFFFF" transform="translate(3360.875,602.8125)"/>
<path d="M0 0 C0 14.85 0 29.7 0 45 C-11.19399591 42.76120082 -11.19399591 42.76120082 -14.98046875 41.6328125 C-32.22262797 36.63840681 -49.97857954 32.49344366 -68 32 C-69.04220703 31.9693042 -69.04220703 31.9693042 -70.10546875 31.93798828 C-91.79656711 31.38098003 -115.92702844 32.44472128 -133.1875 47.1875 C-153.15538002 66.18667222 -156.46985896 94.46003615 -157.1875 120.671875 C-157.64151846 148.37170581 -156.39876187 180.5014324 -137.5625 202.625 C-121.7011233 218.78411585 -99.75595481 221.80691307 -78.0625 222.1875 C-54.56743027 221.94677183 -31.96299173 217.65133687 -9.50952148 210.87988281 C-8.69555908 210.63463867 -7.88159668 210.38939453 -7.04296875 210.13671875 C-6.33164795 209.91717529 -5.62032715 209.69763184 -4.88745117 209.47143555 C-3 209 -3 209 0 209 C0 223.85 0 238.7 0 254 C-21.49057713 259.8732012 -43.105305 265.09993598 -65.4921875 265.203125 C-66.47760529 265.20882507 -67.46302307 265.21452515 -68.478302 265.22039795 C-70.55746404 265.22979654 -72.63664064 265.23636133 -74.71582031 265.24023438 C-77.83165958 265.24986603 -80.94681706 265.28090879 -84.0625 265.3125 C-100.07934611 265.39804425 -115.74876351 264.15679011 -131.125 259.375 C-131.94282959 259.12339111 -132.76065918 258.87178223 -133.60327148 258.61254883 C-146.97681938 254.27277113 -158.66440667 247.52148837 -169 238 C-169.94359375 237.17628906 -169.94359375 237.17628906 -170.90625 236.3359375 C-196.36439884 212.84500926 -202.57603523 173.78580005 -204 141 C-205.37348331 98.23193705 -201.93395596 52.95804446 -172.69921875 19.35546875 C-151.309222 -3.43485512 -118.50977167 -10.9865932 -88.32421875 -11.95166016 C-57.90189279 -12.58439341 -29.1651042 -8.38735023 0 0 Z " fill="#FFFFFF" transform="translate(1304,529)"/>
<path d="M0 0 C16.5138155 15.31157343 20.9259323 35.92474629 22.21875 57.69921875 C22.53002199 67.15530781 22.46042493 76.61852371 22.42153788 86.07841468 C22.40884572 89.6991445 22.40784573 93.31987941 22.40548706 96.94062805 C22.39932563 103.76468368 22.38298891 110.58867353 22.36278808 117.41270047 C22.34026059 125.19532951 22.32939374 132.97796206 22.31939721 140.76061571 C22.29861646 156.74019439 22.26200898 172.7196827 22.21875 188.69921875 C7.03875 188.69921875 -8.14125 188.69921875 -23.78125 188.69921875 C-23.810979 182.54471069 -23.810979 182.54471069 -23.84130859 176.26586914 C-23.90824263 162.7031178 -23.98578336 149.14044446 -24.06877708 135.57778263 C-24.118833 127.35550344 -24.16527655 119.13323387 -24.203125 110.91088867 C-24.23613483 103.74171563 -24.27601532 96.57261881 -24.32404006 89.40353006 C-24.34921594 85.60990052 -24.37102317 81.81632097 -24.38459396 78.02263069 C-24.39749567 74.44639313 -24.41963598 70.87032777 -24.44863319 67.29418564 C-24.46191899 65.36722394 -24.46561473 63.44020346 -24.46894836 61.51319885 C-24.57850954 50.07851068 -25.97981891 41.01254082 -33.90625 32.38671875 C-41.80229678 27.7520826 -50.6967595 27.19946087 -59.65625 27.32421875 C-60.70619141 27.33364502 -61.75613281 27.34307129 -62.83789062 27.3527832 C-75.51368855 27.59903903 -86.24203486 29.3053195 -95.59375 38.44921875 C-100.18540764 45.2711101 -101.8855632 53.19460125 -101.93946838 61.34968567 C-101.9492572 62.47564148 -101.95904602 63.60159729 -101.96913147 64.76167297 C-101.97488693 65.98734482 -101.9806424 67.21301666 -101.98657227 68.47583008 C-101.99647186 69.7737851 -102.00637146 71.07174011 -102.01657104 72.4090271 C-102.04354772 75.96025113 -102.06459633 79.51148835 -102.08457303 83.06275773 C-102.10647736 86.77702616 -102.13384425 90.49125425 -102.16062927 94.20549011 C-102.21049612 101.23537102 -102.25545718 108.26527437 -102.29865164 115.2951991 C-102.34807543 123.3000261 -102.40297445 131.30481264 -102.45833123 139.30960047 C-102.57205903 155.77277056 -102.67819527 172.23597786 -102.78125 188.69921875 C-117.96125 188.69921875 -133.14125 188.69921875 -148.78125 188.69921875 C-148.78125 122.36921875 -148.78125 56.03921875 -148.78125 -12.30078125 C-134.92125 -12.30078125 -121.06125 -12.30078125 -106.78125 -12.30078125 C-106.78125 -10.32078125 -106.78125 -8.34078125 -106.78125 -6.30078125 C-105.77771484 -6.77257812 -105.77771484 -6.77257812 -104.75390625 -7.25390625 C-98.59299396 -9.99944032 -92.59053146 -12.02204025 -86.03125 -13.55078125 C-85.33523682 -13.71352539 -84.63922363 -13.87626953 -83.92211914 -14.04394531 C-56.61204785 -20.1336807 -22.35425184 -18.49249204 0 0 Z " fill="#FFFFFF" transform="translate(3748.78125,601.30078125)"/>
<path d="M0 0 C13.67179238 12.59674546 19.7962975 31.19215795 20.77905655 49.40468597 C20.84170345 53.08473371 20.84530779 56.75990433 20.82470703 60.44042969 C20.82414139 61.84119661 20.82446246 63.24196413 20.82559204 64.64273071 C20.82616058 68.40641625 20.81448812 72.16997157 20.80044413 75.93362713 C20.7878526 79.88138335 20.78675968 83.8291433 20.78439331 87.7769165 C20.7782031 95.23514804 20.76182593 102.69332021 20.74169433 110.15152574 C20.71925833 118.64982016 20.70832263 127.14811758 20.69830346 135.64643431 C20.67745722 153.11198618 20.64081212 170.57745677 20.59765625 188.04296875 C5.74765625 188.04296875 -9.10234375 188.04296875 -24.40234375 188.04296875 C-24.41692627 183.9859668 -24.43150879 179.92896484 -24.4465332 175.74902344 C-24.49694365 162.32197785 -24.56340181 148.89505152 -24.63805866 135.46812057 C-24.68291903 127.32999725 -24.72235588 119.19191674 -24.7487793 111.05371094 C-24.77183877 103.95589646 -24.80532464 96.85821857 -24.85104531 89.76051259 C-24.87487101 86.00644649 -24.89366921 82.25251477 -24.89995766 78.49837494 C-24.90605723 74.955712 -24.92622962 71.41339241 -24.95661926 67.87085724 C-24.96943239 65.96952831 -24.96784296 64.06811885 -24.96562195 62.16674805 C-25.06924627 52.57288348 -25.68169261 41.49017677 -32.40234375 34.04296875 C-40.88899947 27.2952269 -49.73525957 26.71412548 -60.21484375 26.79296875 C-61.73948242 26.78136719 -61.73948242 26.78136719 -63.29492188 26.76953125 C-74.5917432 26.7983313 -85.26420146 27.8813491 -94.15234375 35.35546875 C-102.32211092 45.11380175 -102.69937559 55.03816668 -102.72119141 67.36547852 C-102.73625984 69.32791756 -102.73625984 69.32791756 -102.75163269 71.33000183 C-102.77876079 74.89132656 -102.7940306 78.45261212 -102.80706072 82.01401258 C-102.82276713 85.74562868 -102.84953311 89.47716568 -102.87509155 93.20872498 C-102.92174709 100.26325599 -102.95855488 107.31780212 -102.99176443 114.37240785 C-103.03007968 122.40878844 -103.07946498 130.4450893 -103.12974858 138.48140252 C-103.23287159 155.00187261 -103.32073437 171.52237624 -103.40234375 188.04296875 C-118.58234375 188.04296875 -133.76234375 188.04296875 -149.40234375 188.04296875 C-149.40234375 121.71296875 -149.40234375 55.38296875 -149.40234375 -12.95703125 C-135.54234375 -12.95703125 -121.68234375 -12.95703125 -107.40234375 -12.95703125 C-107.40234375 -10.97703125 -107.40234375 -8.99703125 -107.40234375 -6.95703125 C-106.72171875 -7.2715625 -106.04109375 -7.58609375 -105.33984375 -7.91015625 C-73.1299059 -22.13050115 -28.312888 -23.06464534 0 0 Z " fill="#FFFFFF" transform="translate(1885.40234375,601.95703125)"/>
<path d="M0 0 C0.72494659 0.00310181 1.44989319 0.00620361 2.19680786 0.00939941 C53.70515418 0.26765418 53.70515418 0.26765418 64.6875 11.25 C64.7802833 12.63160115 64.80497043 14.01788038 64.80102539 15.40258789 C64.80094986 16.28342545 64.80087433 17.164263 64.80079651 18.0717926 C64.79563522 19.02907761 64.79047394 19.98636261 64.78515625 20.97265625 C64.78303383 22.43547279 64.78303383 22.43547279 64.78086853 23.92784119 C64.77525133 27.05609143 64.76269593 30.18427123 64.75 33.3125 C64.74498722 35.42773334 64.74042393 37.54296781 64.73632812 39.65820312 C64.72527631 44.85549296 64.70852146 50.05274145 64.6875 55.25 C59.34418167 53.81919571 54.01215041 52.36995446 48.72265625 50.75 C32.73907602 45.88709364 17.36539143 43.03244631 0.625 42.9375 C-0.30231934 42.93186035 -1.22963867 42.9262207 -2.18505859 42.92041016 C-11.44091622 43.01825922 -21.5431616 43.72919954 -29.3125 49.25 C-32.67315034 52.77868285 -33.57167122 55.49932124 -33.75 60.25 C-33.51921569 64.64808954 -33.11452431 67.70626337 -30.3125 71.25 C-20.60974914 78.40847397 -6.36937329 80.14005088 5.13671875 82.6875 C27.04490235 87.54801457 50.22589002 92.83273374 64.5703125 111.73046875 C74.15392253 126.87642531 76.10165101 145.19111041 73.0390625 162.67578125 C69.48486619 177.30266605 61.92591564 188.53332483 49.5 196.9375 C35.08113597 205.66837077 18.28527027 209.34824536 1.55078125 209.453125 C0.7974501 209.46013931 0.04411896 209.46715363 -0.73204041 209.47438049 C-3.15475502 209.49180606 -5.57722499 209.49823435 -8 209.5 C-8.82852478 209.50067474 -9.65704956 209.50134949 -10.51068115 209.50204468 C-34.47146198 209.47104567 -55.75365091 205.45321785 -78.3125 197.25 C-78.3125 182.73 -78.3125 168.21 -78.3125 153.25 C-73.57363418 153.92698083 -70.06048288 154.50706708 -65.6875 155.9921875 C-64.14340454 156.50640259 -64.14340454 156.50640259 -62.56811523 157.03100586 C-61.49376221 157.39202393 -60.41940918 157.75304199 -59.3125 158.125 C-50.03933504 161.16848303 -40.98667965 163.81371075 -31.3125 165.25 C-29.55679688 165.52263672 -29.55679688 165.52263672 -27.765625 165.80078125 C-21.74108975 166.52642958 -15.68482579 166.47417229 -9.625 166.5 C-8.43455078 166.520625 -7.24410156 166.54125 -6.01757812 166.5625 C4.12054325 166.60660276 15.68961491 166.19553178 23.6875 159.25 C27.46335893 154.95333294 27.99853676 151.07580694 27.890625 145.52734375 C27.52709485 141.45161154 26.30403316 138.73293538 23.26953125 135.94921875 C13.13871131 128.72569813 -0.68861525 126.90200972 -12.57846069 124.32025146 C-29.46126793 120.64717535 -46.28048319 116.89994096 -60.3125 106.25 C-61.03566406 105.71890625 -61.75882813 105.1878125 -62.50390625 104.640625 C-73.46422311 95.90564762 -78.7339478 82.89107369 -80.3125 69.25 C-81.31890284 52.21856725 -78.69263875 35.97326965 -67.9375 22.2109375 C-50.40267198 3.2670608 -24.64227532 -0.18833327 0 0 Z " fill="#FFFFFF" transform="translate(4834.3125,586.75)"/>
<path d="M0 0 C0.74092896 0.00093658 1.48185791 0.00187317 2.24523926 0.00283813 C24.26661181 0.06331677 44.4672464 2.94939856 65.0625 11.1875 C65.0625 25.7075 65.0625 40.2275 65.0625 55.1875 C58.87846368 53.50094464 52.76827988 51.80426475 46.64697266 49.94189453 C25.28387168 43.55157681 -5.23052172 36.77123576 -26.265625 47.359375 C-29.52741528 49.50738323 -31.53385499 51.57812712 -32.9375 55.1875 C-33.47917397 59.9078017 -33.44967424 64.50464178 -32.0625 69.0625 C-22.88328208 78.24171792 -6.64625406 79.93322446 5.51171875 82.625 C51.35028285 92.79467052 51.35028285 92.79467052 65.203125 112.18359375 C74.63692421 127.74143489 76.69233591 146.0995802 72.93530273 163.86743164 C71.15818372 171.03430247 68.52531882 177.26468709 64.0625 183.1875 C63.18271484 184.35539062 63.18271484 184.35539062 62.28515625 185.546875 C50.15657624 200.32935698 30.6545646 206.75913387 12.20985413 208.97955322 C8.78525792 209.31118634 5.36324794 209.36908145 1.92578125 209.390625 C1.1724501 209.39763931 0.41911896 209.40465363 -0.35704041 209.41188049 C-2.77975502 209.42930606 -5.20222499 209.43573435 -7.625 209.4375 C-8.45352478 209.43817474 -9.28204956 209.43884949 -10.13568115 209.43954468 C-34.09646198 209.40854567 -55.37865091 205.39071785 -77.9375 197.1875 C-77.9375 182.6675 -77.9375 168.1475 -77.9375 153.1875 C-73.19863418 153.86448083 -69.68548288 154.44456708 -65.3125 155.9296875 C-63.76840454 156.44390259 -63.76840454 156.44390259 -62.19311523 156.96850586 C-61.11876221 157.32952393 -60.04440918 157.69054199 -58.9375 158.0625 C-49.66433504 161.10598303 -40.61167965 163.75121075 -30.9375 165.1875 C-29.18179688 165.46013672 -29.18179688 165.46013672 -27.390625 165.73828125 C-21.36608975 166.46392958 -15.30982579 166.41167229 -9.25 166.4375 C-8.05955078 166.458125 -6.86910156 166.47875 -5.64257812 166.5 C4.49554325 166.54410276 16.06461491 166.13303178 24.0625 159.1875 C27.58657783 155.17734247 28.3833417 151.65489371 28.265625 146.30859375 C27.86499165 142.12505703 26.71391651 138.78432422 23.64453125 135.81640625 C13.50887942 128.63418939 -0.4473052 126.79899913 -12.31744385 124.20062256 C-33.80792874 119.49402086 -57.3743171 114.33232141 -71.0078125 95.296875 C-80.15225272 80.37498511 -82.01366255 63.14221582 -78.875 46.0625 C-75.20461828 30.8591179 -67.137563 19.58448664 -53.9375 11.1875 C-37.20007246 1.71020337 -18.86572369 -0.03058035 0 0 Z " fill="#FFFFFF" transform="translate(4280.9375,586.8125)"/>
<path d="M0 0 C0 19.47 0 38.94 0 59 C21.45 59 42.9 59 65 59 C65 72.86 65 86.72 65 101 C43.55 101 22.1 101 0 101 C0.09658254 122.26246518 0.09658254 122.26246518 0.22207737 143.52470493 C0.27192384 151.12932624 0.31738783 158.7338908 0.34643555 166.33862305 C0.3719115 173.0041889 0.41284416 179.66949647 0.46318626 186.33492851 C0.47986571 188.87737635 0.49137325 191.41986358 0.49761391 193.96235847 C0.50724287 197.52470873 0.53528945 201.08647513 0.56762695 204.64868164 C0.56619186 205.69884964 0.56475677 206.74901764 0.5632782 207.83100891 C0.64722685 214.37414868 1.24302062 219.52380861 5.4375 224.8125 C13.82838404 231.18957187 26.81985001 229.81082546 36.78125 228.50390625 C46.43368163 226.67860668 55.52869583 223.7856777 65 221 C65 236.18 65 251.36 65 267 C38.20302335 274.30826636 6.69172156 277.37667929 -18.875 264.125 C-32.24433356 256.33591001 -39.81032622 244.70058678 -43.86567688 229.82446289 C-46.68520308 216.63562828 -46.37942653 203.49476695 -46.29296875 190.0625 C-46.28736265 187.48462167 -46.28309735 184.90674011 -46.28010559 182.32885742 C-46.26989332 176.2802551 -46.24634612 170.23184491 -46.21605712 164.18331432 C-46.18228224 157.28587935 -46.16596968 150.38843554 -46.15097082 143.49093819 C-46.11978796 129.32718856 -46.06487008 115.16363447 -46 101 C-59.2 101 -72.4 101 -86 101 C-86 87.14 -86 73.28 -86 59 C-72.8 59 -59.6 59 -46 59 C-46 42.5 -46 26 -46 9 C-32.48875562 5.62218891 -32.48875562 5.62218891 -25.8984375 4.39453125 C-25.20988678 4.26559982 -24.52133606 4.1366684 -23.81192017 4.00382996 C-22.38584089 3.73755528 -20.95943846 3.47300541 -19.53271484 3.21020508 C-17.34260575 2.80652916 -15.15368334 2.39682669 -12.96484375 1.98632812 C-2.29617828 0 -2.29617828 0 0 0 Z " fill="#FFFFFF" transform="translate(4468,526)"/>
<path d="M0 0 C16.83 0 33.66 0 51 0 C60.0501032 23.34774523 69.05337299 46.70730701 77.87762451 70.14105225 C84.15176832 86.80003576 90.52883567 103.416573 97 120 C99.8563722 114.49570726 102.24734161 109.00813895 104.36328125 103.18359375 C104.67197144 102.34648361 104.98066162 101.50937347 105.29870605 100.64689636 C105.96171356 98.84831195 106.62280308 97.04901954 107.28213501 95.24908447 C109.05236744 90.41860394 110.83863735 85.59406549 112.625 80.76953125 C112.98946732 79.78458679 113.35393463 78.79964233 113.72944641 77.78485107 C117.34461988 68.03425408 121.06361381 58.3248395 124.8125 48.625 C125.12089813 47.8270401 125.42929626 47.0290802 125.74703979 46.2069397 C126.20567917 45.0203627 126.20567917 45.0203627 126.67358398 43.80981445 C127.28112515 42.23780762 127.88862886 40.66578631 128.49609375 39.09375 C128.79051865 38.33205002 129.08494354 37.57035004 129.38829041 36.78556824 C131.39623408 31.58382491 133.37990518 26.37332237 135.34765625 21.15625 C135.60821304 20.46590668 135.86876984 19.77556335 136.13722229 19.06430054 C137.35026269 15.84847423 138.5597946 12.63141373 139.76489258 9.41259766 C140.1802124 8.30964355 140.59553223 7.20668945 141.0234375 6.0703125 C141.38356934 5.10883301 141.74370117 4.14735352 142.11474609 3.15673828 C143 1 143 1 144 0 C145.59610982 -0.09333705 147.19633428 -0.11745372 148.79516602 -0.11352539 C149.81614883 -0.11344986 150.83713165 -0.11337433 151.88905334 -0.11329651 C152.9994548 -0.10813522 154.10985626 -0.10297394 155.25390625 -0.09765625 C156.94978127 -0.09553383 156.94978127 -0.09553383 158.67991638 -0.09336853 C162.30747065 -0.08775019 165.93496424 -0.07519458 169.5625 -0.0625 C172.01497307 -0.05748736 174.4674471 -0.05292405 176.91992188 -0.04882812 C182.94663545 -0.0377748 188.97331339 -0.02101884 195 0 C191.2955375 10.73066033 187.37623279 21.34473266 183.16781616 31.88769531 C181.52283452 36.00958448 179.88943339 40.13607125 178.25390625 44.26171875 C177.73616386 45.56645645 177.73616386 45.56645645 177.20796204 46.89755249 C173.16757728 57.08522505 169.17720171 67.29239764 165.1875 77.5 C164.42677999 79.44556531 163.66603767 81.3911219 162.90527344 83.33666992 C161.36939962 87.2647216 159.83379572 91.19287868 158.29833984 95.12109375 C156.0295643 100.92496612 153.7591814 106.72820865 151.48828125 112.53125 C151.11709167 113.47983887 150.7459021 114.42842773 150.36346436 115.40576172 C148.50402842 120.15741791 146.64417259 124.90890922 144.78369141 129.66015625 C141.26227866 138.65435634 137.74498717 147.65011205 134.24038696 156.65087891 C132.58218652 160.90892655 130.92191252 165.16616429 129.26147461 169.42333984 C128.46941981 171.45581279 127.67838474 173.48868345 126.88842773 175.52197266 C125.7940722 178.33857344 124.6962318 181.15379302 123.59765625 183.96875 C123.27660416 184.7978186 122.95555206 185.62688721 122.62477112 186.4810791 C122.32199753 187.25495972 122.01922394 188.02884033 121.70727539 188.82617188 C121.44846085 189.49128784 121.1896463 190.15640381 120.92298889 190.8416748 C119.73651547 193.6161345 118.34946995 196.3010601 117 199 C103.8 199 90.6 199 77 199 C38.74999999 101.24999996 38.74999999 101.24999996 37.62519836 98.37550354 C36.87454022 96.45715721 36.123879 94.53881207 35.37321472 92.62046814 C33.50825928 87.85451019 31.64335571 83.08853196 29.77856445 78.32250977 C26.2839612 69.39118598 22.78883573 60.46006756 19.29196167 51.52963257 C17.65155843 47.34022538 16.01143776 43.1507076 14.37133789 38.96118164 C13.59413494 36.97610047 12.81679561 34.99107268 12.03930664 33.00610352 C9.98370551 27.75799951 7.93073702 22.50888587 5.88226318 17.25799561 C5.0515509 15.13193535 4.21679724 13.00750281 3.38134766 10.88330078 C2.92163574 9.70622559 2.46192383 8.52915039 1.98828125 7.31640625 C1.59809814 6.3219751 1.20791504 5.32754395 0.8059082 4.30297852 C0 2 0 2 0 0 Z " fill="#FFFFFF" transform="translate(3790,593)"/>
<path d="M0 0 C-5.05446917 5.31515813 -10.37940187 10.07458917 -16.1015625 14.66015625 C-18.99058194 16.99239701 -21.8047127 19.39787046 -24.625 21.8125 C-56.8324825 48.60383333 -95.29619509 68.10100568 -135 81 C-135.89750977 81.29261719 -136.79501953 81.58523438 -137.71972656 81.88671875 C-154.84889635 87.38245239 -172.2706993 91.0937078 -190 94 C-191.10134277 94.18079102 -192.20268555 94.36158203 -193.33740234 94.54785156 C-225.87681269 99.58317641 -261.52032408 99.25768601 -294 94 C-295.07185547 93.82839355 -296.14371094 93.65678711 -297.24804688 93.47998047 C-339.0056365 86.56364791 -377.91820074 72.22912379 -415 52 C-415 51.34 -415 50.68 -415 50 C-413.9790625 50.24234375 -412.958125 50.4846875 -411.90625 50.734375 C-402.79550889 52.85094727 -393.66472206 54.65248815 -384.4375 56.1875 C-382.94089844 56.43741699 -382.94089844 56.43741699 -381.4140625 56.69238281 C-372.47994876 58.14851179 -363.72086992 59.15337985 -354.6640625 59.23828125 C-353.79551132 59.2480751 -352.92696014 59.25786896 -352.03208923 59.26795959 C-332.28396527 59.4446365 -313.41690249 58.95317785 -294 55 C-292.89301758 54.78569336 -291.78603516 54.57138672 -290.64550781 54.35058594 C-282.38703069 52.74470601 -274.18633466 50.93916474 -266 49 C-264.84790039 48.72736328 -263.69580078 48.45472656 -262.50878906 48.17382812 C-236.11536941 41.79817919 -210.46820785 32.82134593 -185.05859375 23.3125 C-184.26600662 23.01603073 -183.47341949 22.71956146 -182.65681458 22.41410828 C-178.93250213 21.01731934 -175.21383002 19.6077252 -171.50317383 18.17504883 C-170.82356094 17.91622925 -170.14394806 17.65740967 -169.44374084 17.39074707 C-167.63960008 16.70364804 -165.83868235 16.00810194 -164.03808594 15.31176758 C-154.65444997 12.05212345 -144.83647762 10.48294856 -134.9921875 9.4375 C-133.85079315 9.31383057 -132.7093988 9.19016113 -131.53341675 9.06274414 C-115.4417082 7.41967223 -99.27685931 6.7689022 -83.125 6 C-44.79604143 4.25620233 -44.79604143 4.25620233 -6.77761841 -0.71289062 C-4.14956048 -0.98454064 -2.47650092 -0.84036318 0 0 Z " fill="#FFFFFF" transform="translate(859,868)"/>
<path d="M0 0 C16.17 0 32.34 0 49 0 C49 90.42 49 180.84 49 274 C32.83 274 16.66 274 0 274 C0 183.58 0 93.16 0 0 Z " fill="#FFFFFF" transform="translate(3514,517)"/>
<path d="M0 0 C1.02222656 -0.01224609 2.04445313 -0.02449219 3.09765625 -0.03710938 C12.01932027 -0.05369239 19.94957665 1.05619708 29 2.1875 C29 16.7075 29 31.2275 29 46.1875 C17 45.1875 17 45.1875 13.9453125 44.640625 C0.03265941 42.50021683 -16.62241234 42.52599647 -28.9375 49.875 C-36.52050498 55.46969445 -39.31364634 63.14044051 -41 72.1875 C-41.97547122 79.66226297 -42.1664248 87.08368921 -42.20532227 94.61376953 C-42.21522186 95.81491898 -42.22512146 97.01606842 -42.23532104 98.25361633 C-42.2613122 101.51530463 -42.28325382 104.77698864 -42.30332303 108.03871775 C-42.32535141 111.45933937 -42.35265679 114.879919 -42.37937927 118.30050659 C-42.42908031 124.76356449 -42.47410188 131.22664599 -42.51740164 137.6897496 C-42.56696843 145.05383528 -42.62181378 152.41787877 -42.67708123 159.78192353 C-42.79055401 174.91707761 -42.89677056 190.05227194 -43 205.1875 C-57.85 205.1875 -72.7 205.1875 -88 205.1875 C-88 138.8575 -88 72.5275 -88 4.1875 C-74.14 4.1875 -60.28 4.1875 -46 4.1875 C-45.505 6.6625 -45.505 6.6625 -45 9.1875 C-44.28457031 8.86136719 -43.56914062 8.53523437 -42.83203125 8.19921875 C-28.84592406 2.06559606 -15.14922463 0.00927125 0 0 Z " fill="#FFFFFF" transform="translate(2244,584.8125)"/>
<path d="M0 0 C15.18 0 30.36 0 46 0 C46 66.33 46 132.66 46 201 C30.82 201 15.64 201 0 201 C0 134.67 0 68.34 0 0 Z " fill="#FFFFFF" transform="translate(4934,589)"/>
<path d="M0 0 C5.95250144 4.36925879 10.47145452 10.05923865 11.89453125 17.390625 C12.81421097 25.58727049 11.95852111 33.12123469 7.89453125 40.390625 C3.40732461 45.93126164 -2.10179135 49.16828508 -9.10546875 50.390625 C-18.62136673 51.293872 -26.72042139 50.30200115 -34.41796875 44.390625 C-40.43152983 38.6651387 -42.27173331 31.44206789 -42.60546875 23.328125 C-42.24291591 14.83559934 -39.9798408 8.75006996 -33.73046875 2.890625 C-25.25216062 -4.41929437 -9.86099129 -5.35472567 0 0 Z " fill="#FFFFFF" transform="translate(4972.10546875,524.609375)"/>
</svg>